<svg width="128" height="43" viewBox="0 0 128 43" fill="none" xmlns="http://www.w3.org/2000/svg">
<g id="Go Back">
<g id="Go Back_2" filter="url(#filter0_d_126_179)">
<mask id="path-1-inside-1_126_179" fill="white">
<path d="M48.3609 18.9065C48.0261 18.2123 47.561 17.6916 46.9657 17.3445C46.3704 16.984 45.6821 16.8037 44.9007 16.8037C44.045 16.8037 43.2822 17.0107 42.6125 17.4246C41.9428 17.8385 41.4157 18.4259 41.0313 19.1869C40.6592 19.9479 40.4732 20.8291 40.4732 21.8304C40.4732 22.8318 40.6592 23.7196 41.0313 24.494C41.4157 25.255 41.9428 25.8425 42.6125 26.2563C43.2822 26.6702 44.045 26.8772 44.9007 26.8772C46.0541 26.8772 46.9905 26.53 47.7098 25.8358C48.4291 25.1415 48.8694 24.2003 49.0306 23.012H44.1752V21.1896H51.3002V22.972C51.1638 24.0534 50.8041 25.0481 50.2212 25.9559C49.6507 26.8638 48.9004 27.5915 47.9702 28.1389C47.0525 28.6729 46.0293 28.9399 44.9007 28.9399C43.6853 28.9399 42.5753 28.6395 41.5708 28.0387C40.5662 27.4246 39.7663 26.5768 39.171 25.4953C38.5881 24.4139 38.2966 23.1923 38.2966 21.8304C38.2966 20.4686 38.5881 19.247 39.171 18.1656C39.7663 17.0841 40.5662 16.243 41.5708 15.6422C42.5877 15.028 43.6977 14.721 44.9007 14.721C46.2774 14.721 47.499 15.0881 48.5655 15.8224C49.6445 16.5434 50.4259 17.5714 50.9095 18.9065H48.3609Z"/>
<path d="M57.2799 29C56.3126 29 55.4382 28.7664 54.6569 28.2991C53.8756 27.8184 53.2617 27.1509 52.8152 26.2964C52.3687 25.4286 52.1455 24.4272 52.1455 23.2924C52.1455 22.1709 52.3749 21.1762 52.8338 20.3084C53.2927 19.4406 53.919 18.773 54.7127 18.3057C55.5064 17.8385 56.3932 17.6048 57.373 17.6048C58.3527 17.6048 59.2395 17.8385 60.0332 18.3057C60.8269 18.773 61.4533 19.4406 61.9121 20.3084C62.371 21.1762 62.6004 22.1709 62.6004 23.2924C62.6004 24.4139 62.3648 25.4085 61.8935 26.2764C61.4222 27.1442 60.7773 27.8184 59.9588 28.2991C59.1527 28.7664 58.2597 29 57.2799 29ZM57.2799 27.0174C57.8256 27.0174 58.3341 26.8772 58.8054 26.5968C59.2891 26.3164 59.6798 25.8959 59.9774 25.3351C60.2751 24.7744 60.4239 24.0935 60.4239 23.2924C60.4239 22.4913 60.2812 21.8171 59.996 21.2697C59.7108 20.7089 59.3325 20.2884 58.8612 20.008C58.3899 19.7276 57.8814 19.5875 57.3358 19.5875C56.7901 19.5875 56.2816 19.7276 55.8103 20.008C55.3514 20.2884 54.9856 20.7089 54.7127 21.2697C54.4399 21.8171 54.3034 22.4913 54.3034 23.2924C54.3034 24.4806 54.5825 25.4019 55.1406 26.0561C55.7111 26.6969 56.4242 27.0174 57.2799 27.0174Z"/>
<path d="M75.3336 21.6702C76.0281 21.8037 76.6172 22.1976 77.1009 22.8518C77.5845 23.506 77.8264 24.247 77.8264 25.0748C77.8264 25.7824 77.6528 26.4232 77.3055 26.9973C76.9706 27.5581 76.4808 28.0053 75.8358 28.3391C75.1909 28.6595 74.4406 28.8198 73.5849 28.8198H68.4132V14.9012H73.343C74.2236 14.9012 74.9801 15.0614 75.6126 15.3818C76.2451 15.7023 76.7226 16.1362 77.0451 16.6836C77.3675 17.2176 77.5287 17.8184 77.5287 18.486C77.5287 19.287 77.3303 19.9546 76.9334 20.4887C76.5366 21.0227 76.0033 21.4166 75.3336 21.6702ZM70.534 20.749H73.157C73.8515 20.749 74.391 20.5821 74.7755 20.2483C75.1723 19.9012 75.3708 19.4072 75.3708 18.7664C75.3708 18.1389 75.1723 17.6515 74.7755 17.3044C74.391 16.9439 73.8515 16.7637 73.157 16.7637H70.534V20.749ZM73.3988 26.9573C74.1182 26.9573 74.6825 26.7704 75.0917 26.3965C75.501 26.0227 75.7056 25.502 75.7056 24.8344C75.7056 24.1535 75.4886 23.6128 75.0545 23.2123C74.6204 22.8117 74.0437 22.6115 73.3244 22.6115H70.534V26.9573H73.3988Z"/>
<path d="M78.866 23.2523C78.866 22.1442 79.0768 21.1629 79.4985 20.3084C79.9326 19.4539 80.5155 18.7931 81.2472 18.3258C81.9913 17.8451 82.8098 17.6048 83.7028 17.6048C84.5089 17.6048 85.2096 17.7784 85.8049 18.1255C86.4127 18.4593 86.8963 18.8798 87.256 19.3872V17.785H89.3954V28.8198H87.256V27.1776C86.8963 27.6983 86.4064 28.1322 85.7863 28.4793C85.1662 28.8264 84.4593 29 83.6656 29C82.785 29 81.9789 28.7597 81.2472 28.279C80.5155 27.785 79.9326 27.1041 79.4985 26.2363C79.0768 25.3551 78.866 24.3605 78.866 23.2523ZM87.256 23.2924C87.256 22.5314 87.1072 21.8705 86.8095 21.3097C86.5243 20.749 86.146 20.3218 85.6747 20.028C85.2034 19.7343 84.695 19.5875 84.1493 19.5875C83.6036 19.5875 83.0951 19.7343 82.6238 20.028C82.1525 20.3084 81.7681 20.729 81.4704 21.2897C81.1852 21.8371 81.0425 22.4913 81.0425 23.2523C81.0425 24.0134 81.1852 24.6809 81.4704 25.255C81.7681 25.8291 82.1525 26.2697 82.6238 26.5768C83.1075 26.8705 83.616 27.0174 84.1493 27.0174C84.695 27.0174 85.2034 26.8705 85.6747 26.5768C86.146 26.283 86.5243 25.8558 86.8095 25.2951C87.1072 24.721 87.256 24.0534 87.256 23.2924Z"/>
<path d="M90.9159 23.2924C90.9159 22.1575 91.1267 21.1629 91.5484 20.3084C91.9825 19.4406 92.5778 18.773 93.3343 18.3057C94.0908 17.8385 94.959 17.6048 95.9387 17.6048C97.1789 17.6048 98.2021 17.9252 99.0082 18.5661C99.8268 19.1936 100.379 20.0948 100.664 21.2697H98.3757C98.1897 20.7223 97.8921 20.2951 97.4828 19.988C97.0735 19.6809 96.5588 19.5274 95.9387 19.5274C95.0706 19.5274 94.3761 19.8611 93.8552 20.5287C93.3467 21.1829 93.0924 22.1041 93.0924 23.2924C93.0924 24.4806 93.3467 25.4085 93.8552 26.0761C94.3761 26.7437 95.0706 27.0774 95.9387 27.0774C97.1665 27.0774 97.9789 26.4967 98.3757 25.3351H100.664C100.366 26.4566 99.8082 27.3511 98.9896 28.0187C98.1711 28.6729 97.1541 29 95.9387 29C94.959 29 94.0908 28.7664 93.3343 28.2991C92.5778 27.8184 91.9825 27.1509 91.5484 26.2964C91.1267 25.4286 90.9159 24.4272 90.9159 23.2924Z"/>
<path d="M106.275 23.3124L111 28.8198H108.135L104.34 24.0734V28.8198H102.219V14H104.34V22.6115L108.061 17.785H111L106.275 23.3124Z"/>
<path d="M17.408 20.749C17.1468 21.0306 17 21.4124 17 21.8104C17 22.2084 17.1468 22.5902 17.408 22.8718L22.669 28.5384C22.9307 28.8202 23.2857 28.9785 23.6559 28.9785C24.0261 28.9785 24.3811 28.8202 24.6428 28.5384C24.9045 28.2566 25.0516 27.8745 25.0516 27.476C25.0516 27.0775 24.9045 26.6953 24.6428 26.4136L21.763 23.3124H32.4924C32.8624 23.3124 33.2173 23.1542 33.479 22.8725C33.7406 22.5908 33.8876 22.2088 33.8876 21.8104C33.8876 21.4121 33.7406 21.03 33.479 20.7483C33.2173 20.4667 32.8624 20.3084 32.4924 20.3084H21.763L24.6428 17.2083C24.7724 17.0688 24.8752 16.9031 24.9453 16.7208C25.0155 16.5385 25.0516 16.3432 25.0516 16.1459C25.0516 15.9486 25.0155 15.7532 24.9453 15.5709C24.8752 15.3886 24.7724 15.223 24.6428 15.0834C24.5132 14.9439 24.3593 14.8333 24.19 14.7577C24.0207 14.6822 23.8392 14.6434 23.6559 14.6434C23.4726 14.6434 23.2911 14.6822 23.1218 14.7577C22.9525 14.8333 22.7986 14.9439 22.669 15.0834L17.408 20.749Z"/>
</mask>
<path d="M48.3609 18.9065C48.0261 18.2123 47.561 17.6916 46.9657 17.3445C46.3704 16.984 45.6821 16.8037 44.9007 16.8037C44.045 16.8037 43.2822 17.0107 42.6125 17.4246C41.9428 17.8385 41.4157 18.4259 41.0313 19.1869C40.6592 19.9479 40.4732 20.8291 40.4732 21.8304C40.4732 22.8318 40.6592 23.7196 41.0313 24.494C41.4157 25.255 41.9428 25.8425 42.6125 26.2563C43.2822 26.6702 44.045 26.8772 44.9007 26.8772C46.0541 26.8772 46.9905 26.53 47.7098 25.8358C48.4291 25.1415 48.8694 24.2003 49.0306 23.012H44.1752V21.1896H51.3002V22.972C51.1638 24.0534 50.8041 25.0481 50.2212 25.9559C49.6507 26.8638 48.9004 27.5915 47.9702 28.1389C47.0525 28.6729 46.0293 28.9399 44.9007 28.9399C43.6853 28.9399 42.5753 28.6395 41.5708 28.0387C40.5662 27.4246 39.7663 26.5768 39.171 25.4953C38.5881 24.4139 38.2966 23.1923 38.2966 21.8304C38.2966 20.4686 38.5881 19.247 39.171 18.1656C39.7663 17.0841 40.5662 16.243 41.5708 15.6422C42.5877 15.028 43.6977 14.721 44.9007 14.721C46.2774 14.721 47.499 15.0881 48.5655 15.8224C49.6445 16.5434 50.4259 17.5714 50.9095 18.9065H48.3609Z" stroke="white" stroke-width="6" shape-rendering="crispEdges" mask="url(#path-1-inside-1_126_179)"/>
<path d="M57.2799 29C56.3126 29 55.4382 28.7664 54.6569 28.2991C53.8756 27.8184 53.2617 27.1509 52.8152 26.2964C52.3687 25.4286 52.1455 24.4272 52.1455 23.2924C52.1455 22.1709 52.3749 21.1762 52.8338 20.3084C53.2927 19.4406 53.919 18.773 54.7127 18.3057C55.5064 17.8385 56.3932 17.6048 57.373 17.6048C58.3527 17.6048 59.2395 17.8385 60.0332 18.3057C60.8269 18.773 61.4533 19.4406 61.9121 20.3084C62.371 21.1762 62.6004 22.1709 62.6004 23.2924C62.6004 24.4139 62.3648 25.4085 61.8935 26.2764C61.4222 27.1442 60.7773 27.8184 59.9588 28.2991C59.1527 28.7664 58.2597 29 57.2799 29ZM57.2799 27.0174C57.8256 27.0174 58.3341 26.8772 58.8054 26.5968C59.2891 26.3164 59.6798 25.8959 59.9774 25.3351C60.2751 24.7744 60.4239 24.0935 60.4239 23.2924C60.4239 22.4913 60.2812 21.8171 59.996 21.2697C59.7108 20.7089 59.3325 20.2884 58.8612 20.008C58.3899 19.7276 57.8814 19.5875 57.3358 19.5875C56.7901 19.5875 56.2816 19.7276 55.8103 20.008C55.3514 20.2884 54.9856 20.7089 54.7127 21.2697C54.4399 21.8171 54.3034 22.4913 54.3034 23.2924C54.3034 24.4806 54.5825 25.4019 55.1406 26.0561C55.7111 26.6969 56.4242 27.0174 57.2799 27.0174Z" stroke="white" stroke-width="6" shape-rendering="crispEdges" mask="url(#path-1-inside-1_126_179)"/>
<path d="M75.3336 21.6702C76.0281 21.8037 76.6172 22.1976 77.1009 22.8518C77.5845 23.506 77.8264 24.247 77.8264 25.0748C77.8264 25.7824 77.6528 26.4232 77.3055 26.9973C76.9706 27.5581 76.4808 28.0053 75.8358 28.3391C75.1909 28.6595 74.4406 28.8198 73.5849 28.8198H68.4132V14.9012H73.343C74.2236 14.9012 74.9801 15.0614 75.6126 15.3818C76.2451 15.7023 76.7226 16.1362 77.0451 16.6836C77.3675 17.2176 77.5287 17.8184 77.5287 18.486C77.5287 19.287 77.3303 19.9546 76.9334 20.4887C76.5366 21.0227 76.0033 21.4166 75.3336 21.6702ZM70.534 20.749H73.157C73.8515 20.749 74.391 20.5821 74.7755 20.2483C75.1723 19.9012 75.3708 19.4072 75.3708 18.7664C75.3708 18.1389 75.1723 17.6515 74.7755 17.3044C74.391 16.9439 73.8515 16.7637 73.157 16.7637H70.534V20.749ZM73.3988 26.9573C74.1182 26.9573 74.6825 26.7704 75.0917 26.3965C75.501 26.0227 75.7056 25.502 75.7056 24.8344C75.7056 24.1535 75.4886 23.6128 75.0545 23.2123C74.6204 22.8117 74.0437 22.6115 73.3244 22.6115H70.534V26.9573H73.3988Z" stroke="white" stroke-width="6" shape-rendering="crispEdges" mask="url(#path-1-inside-1_126_179)"/>
<path d="M78.866 23.2523C78.866 22.1442 79.0768 21.1629 79.4985 20.3084C79.9326 19.4539 80.5155 18.7931 81.2472 18.3258C81.9913 17.8451 82.8098 17.6048 83.7028 17.6048C84.5089 17.6048 85.2096 17.7784 85.8049 18.1255C86.4127 18.4593 86.8963 18.8798 87.256 19.3872V17.785H89.3954V28.8198H87.256V27.1776C86.8963 27.6983 86.4064 28.1322 85.7863 28.4793C85.1662 28.8264 84.4593 29 83.6656 29C82.785 29 81.9789 28.7597 81.2472 28.279C80.5155 27.785 79.9326 27.1041 79.4985 26.2363C79.0768 25.3551 78.866 24.3605 78.866 23.2523ZM87.256 23.2924C87.256 22.5314 87.1072 21.8705 86.8095 21.3097C86.5243 20.749 86.146 20.3218 85.6747 20.028C85.2034 19.7343 84.695 19.5875 84.1493 19.5875C83.6036 19.5875 83.0951 19.7343 82.6238 20.028C82.1525 20.3084 81.7681 20.729 81.4704 21.2897C81.1852 21.8371 81.0425 22.4913 81.0425 23.2523C81.0425 24.0134 81.1852 24.6809 81.4704 25.255C81.7681 25.8291 82.1525 26.2697 82.6238 26.5768C83.1075 26.8705 83.616 27.0174 84.1493 27.0174C84.695 27.0174 85.2034 26.8705 85.6747 26.5768C86.146 26.283 86.5243 25.8558 86.8095 25.2951C87.1072 24.721 87.256 24.0534 87.256 23.2924Z" stroke="white" stroke-width="6" shape-rendering="crispEdges" mask="url(#path-1-inside-1_126_179)"/>
<path d="M90.9159 23.2924C90.9159 22.1575 91.1267 21.1629 91.5484 20.3084C91.9825 19.4406 92.5778 18.773 93.3343 18.3057C94.0908 17.8385 94.959 17.6048 95.9387 17.6048C97.1789 17.6048 98.2021 17.9252 99.0082 18.5661C99.8268 19.1936 100.379 20.0948 100.664 21.2697H98.3757C98.1897 20.7223 97.8921 20.2951 97.4828 19.988C97.0735 19.6809 96.5588 19.5274 95.9387 19.5274C95.0706 19.5274 94.3761 19.8611 93.8552 20.5287C93.3467 21.1829 93.0924 22.1041 93.0924 23.2924C93.0924 24.4806 93.3467 25.4085 93.8552 26.0761C94.3761 26.7437 95.0706 27.0774 95.9387 27.0774C97.1665 27.0774 97.9789 26.4967 98.3757 25.3351H100.664C100.366 26.4566 99.8082 27.3511 98.9896 28.0187C98.1711 28.6729 97.1541 29 95.9387 29C94.959 29 94.0908 28.7664 93.3343 28.2991C92.5778 27.8184 91.9825 27.1509 91.5484 26.2964C91.1267 25.4286 90.9159 24.4272 90.9159 23.2924Z" stroke="white" stroke-width="6" shape-rendering="crispEdges" mask="url(#path-1-inside-1_126_179)"/>
<path d="M106.275 23.3124L111 28.8198H108.135L104.34 24.0734V28.8198H102.219V14H104.34V22.6115L108.061 17.785H111L106.275 23.3124Z" stroke="white" stroke-width="6" shape-rendering="crispEdges" mask="url(#path-1-inside-1_126_179)"/>
<path d="M17.408 20.749C17.1468 21.0306 17 21.4124 17 21.8104C17 22.2084 17.1468 22.5902 17.408 22.8718L22.669 28.5384C22.9307 28.8202 23.2857 28.9785 23.6559 28.9785C24.0261 28.9785 24.3811 28.8202 24.6428 28.5384C24.9045 28.2566 25.0516 27.8745 25.0516 27.476C25.0516 27.0775 24.9045 26.6953 24.6428 26.4136L21.763 23.3124H32.4924C32.8624 23.3124 33.2173 23.1542 33.479 22.8725C33.7406 22.5908 33.8876 22.2088 33.8876 21.8104C33.8876 21.4121 33.7406 21.03 33.479 20.7483C33.2173 20.4667 32.8624 20.3084 32.4924 20.3084H21.763L24.6428 17.2083C24.7724 17.0688 24.8752 16.9031 24.9453 16.7208C25.0155 16.5385 25.0516 16.3432 25.0516 16.1459C25.0516 15.9486 25.0155 15.7532 24.9453 15.5709C24.8752 15.3886 24.7724 15.223 24.6428 15.0834C24.5132 14.9439 24.3593 14.8333 24.19 14.7577C24.0207 14.6822 23.8392 14.6434 23.6559 14.6434C23.4726 14.6434 23.2911 14.6822 23.1218 14.7577C22.9525 14.8333 22.7986 14.9439 22.669 15.0834L17.408 20.749Z" stroke="white" stroke-width="6" shape-rendering="crispEdges" mask="url(#path-1-inside-1_126_179)"/>
</g>
<rect id="Rectangle 18" x="1" y="1" width="126" height="41" rx="9" stroke="#D6F2E7" stroke-width="2"/>
</g>
<defs>
<filter id="filter0_d_126_179" x="13" y="14" width="102" height="23" filterUnits="userSpaceOnUse" color-interpolation-filters="sRGB">
<feFlood flood-opacity="0" result="BackgroundImageFix"/>
<feColorMatrix in="SourceAlpha" type="matrix" values="0 0 0 0 0 0 0 0 0 0 0 0 0 0 0 0 0 0 127 0" result="hardAlpha"/>
<feOffset dy="4"/>
<feGaussianBlur stdDeviation="2"/>
<feComposite in2="hardAlpha" operator="out"/>
<feColorMatrix type="matrix" values="0 0 0 0 0 0 0 0 0 0 0 0 0 0 0 0 0 0 0.05 0"/>
<feBlend mode="normal" in2="BackgroundImageFix" result="effect1_dropShadow_126_179"/>
<feBlend mode="normal" in="SourceGraphic" in2="effect1_dropShadow_126_179" result="shape"/>
</filter>
</defs>
</svg>
