<svg width="561" height="77" viewBox="0 0 561 77" fill="none" xmlns="http://www.w3.org/2000/svg">
<rect x="0.000976562" width="561" height="77" rx="38.5" fill="url(#paint0_linear_126_43)"/>
<g clip-path="url(#clip0_126_43)">
<path d="M-197.197 280.236L101.82 -406L400.838 280.236M-47.4119 280.236L251.605 -406L550.623 280.236L849.64 -406L1148.66 280.236M-645.999 280.236L-346.982 -406L-47.9645 280.236M-496.214 280.236L-197.197 -406L101.82 280.236C205.044 43.3416 268.179 -101.553 362.099 -317.096M1298.44 -406L999.425 280.236L700.407 -406L401.39 280.236M700.407 280.236L999.425 -406L1298.44 280.236M1149.21 -406L850.192 280.236M251.605 280.236L550.623 -406L849.64 280.236M699.855 280.236L400.838 -406C387.765 -376 375.336 -347.475 363.406 -320.095M-645.999 -406L-346.982 280.236L-47.9646 -406L251.053 280.236M-496.767 -406L-197.75 280.236" stroke="#E3EDDA" stroke-opacity="0.53"/>
<path d="M-421.598 109.713L-421.911 108.994L-421.598 108.275L-421.284 108.994L-421.598 109.713Z" stroke="#E3EDDA" stroke-opacity="0.53" stroke-width="8"/>
<path d="M-272.052 108.994L-272.366 109.713L-272.679 108.994L-272.366 108.275L-272.052 108.994Z" stroke="#E3EDDA" stroke-opacity="0.53" stroke-width="8"/>
<path d="M-122.581 109.713L-122.894 108.994L-122.581 108.275L-122.267 108.994L-122.581 109.713Z" stroke="#E3EDDA" stroke-opacity="0.53" stroke-width="8"/>
<path d="M27.2043 109.713L26.8909 108.994L27.2043 108.275L27.5177 108.994L27.2043 109.713Z" stroke="#E3EDDA" stroke-opacity="0.53" stroke-width="8"/>
<path d="M176.75 108.994L176.437 109.713L176.123 108.994L176.437 108.275L176.75 108.994Z" stroke="#E3EDDA" stroke-opacity="0.53" stroke-width="8"/>
<path d="M326.222 109.713L325.908 108.994L326.222 108.275L326.535 108.994L326.222 109.713Z" stroke="#E3EDDA" stroke-opacity="0.53" stroke-width="8"/>
<path d="M476.006 109.713L475.693 108.994L476.006 108.275L476.32 108.994L476.006 109.713Z" stroke="#E3EDDA" stroke-opacity="0.53" stroke-width="8"/>
<path d="M625.552 108.994L625.239 109.713L624.925 108.994L625.239 108.275L625.552 108.994Z" stroke="#E3EDDA" stroke-opacity="0.53" stroke-width="8"/>
<path d="M775.024 109.713L774.71 108.994L775.023 108.274L775.337 108.994L775.024 109.713Z" stroke="#E3EDDA" stroke-opacity="0.53" stroke-width="8"/>
<path d="M924.809 109.713L924.495 108.994L924.808 108.275L925.122 108.994L924.809 109.713Z" stroke="#E3EDDA" stroke-opacity="0.53" stroke-width="8"/>
<path d="M1074.35 108.994L1074.04 109.713L1073.73 108.994L1074.04 108.275L1074.35 108.994Z" stroke="#E3EDDA" stroke-opacity="0.53" stroke-width="8"/>
<path d="M1149.25 -62.8822L1148.93 -62.1628L1148.62 -62.8822L1148.93 -63.6016L1149.25 -62.8822Z" stroke="#E3EDDA" stroke-opacity="0.53" stroke-width="8"/>
<path d="M1074.32 -234.843L1074.63 -234.124L1074.32 -233.405L1074 -234.124L1074.32 -234.843Z" stroke="#E3EDDA" stroke-opacity="0.53" stroke-width="8"/>
<path d="M-422.188 -234.124L-421.874 -234.843L-421.561 -234.124L-421.874 -233.405L-422.188 -234.124Z" stroke="#E3EDDA" stroke-opacity="0.53" stroke-width="8"/>
<path d="M-496.804 -62.8821L-496.49 -63.6015L-496.177 -62.8822L-496.49 -62.1628L-496.804 -62.8821Z" stroke="#E3EDDA" stroke-opacity="0.53" stroke-width="8"/>
<path d="M-347.295 -62.2479L-346.982 -61.5285L-346.668 -62.248L-346.982 -62.9673L-347.295 -62.2479Z" stroke="#E3EDDA" stroke-opacity="0.53" stroke-width="8"/>
<path d="M-272.403 -234.124L-272.089 -234.843L-271.776 -234.124L-272.089 -233.405L-272.403 -234.124Z" stroke="#E3EDDA" stroke-opacity="0.53" stroke-width="8"/>
<path d="M-346.982 -405.281L-346.738 -405.84L-346.982 -406L-347.225 -405.84L-346.982 -405.281Z" stroke="#E3EDDA" stroke-opacity="0.53" stroke-width="8"/>
<path d="M-197.787 -62.8821L-197.473 -62.1628L-197.16 -62.8822L-197.473 -63.6015L-197.787 -62.8821Z" stroke="#E3EDDA" stroke-opacity="0.53" stroke-width="8"/>
<path d="M-122.894 -234.758L-122.581 -235.478L-122.267 -234.758L-122.581 -234.039L-122.894 -234.758Z" stroke="#E3EDDA" stroke-opacity="0.53" stroke-width="8"/>
<path d="M-197.197 -405.281L-196.953 -405.84L-197.197 -406L-197.44 -405.84L-197.197 -405.281Z" stroke="#E3EDDA" stroke-opacity="0.53" stroke-width="8"/>
<path d="M-48.0016 -62.8821L-47.6882 -62.1628L-47.3747 -62.8822L-47.6881 -63.6015L-48.0016 -62.8821Z" stroke="#E3EDDA" stroke-opacity="0.53" stroke-width="8"/>
<path d="M26.6145 -234.124L26.928 -234.843L27.2414 -234.124L26.9279 -233.405L26.6145 -234.124Z" stroke="#E3EDDA" stroke-opacity="0.53" stroke-width="8"/>
<path d="M-47.9646 -405.281L-47.7209 -405.84L-47.9645 -406L-48.2082 -405.84L-47.9646 -405.281Z" stroke="#E3EDDA" stroke-opacity="0.53" stroke-width="8"/>
<path d="M101.507 -62.2479L101.82 -61.5286L102.134 -62.248L101.82 -62.9672L101.507 -62.2479Z" stroke="#E3EDDA" stroke-opacity="0.53" stroke-width="8"/>
<path d="M176.399 -234.124L176.713 -234.843L177.026 -234.124L176.713 -233.405L176.399 -234.124Z" stroke="#E3EDDA" stroke-opacity="0.53" stroke-width="8"/>
<path d="M101.82 -405.281L102.064 -405.84L101.82 -406L101.577 -405.84L101.82 -405.281Z" stroke="#E3EDDA" stroke-opacity="0.53" stroke-width="8"/>
<path d="M251.016 -62.8821L251.329 -62.1629L251.642 -62.8822L251.329 -63.6015L251.016 -62.8821Z" stroke="#E3EDDA" stroke-opacity="0.53" stroke-width="8"/>
<path d="M325.908 -234.758L326.222 -235.477L326.535 -234.758L326.222 -234.039L325.908 -234.758Z" stroke="#E3EDDA" stroke-opacity="0.53" stroke-width="8"/>
<path d="M251.605 -405.281L251.849 -405.84L251.605 -406L251.362 -405.84L251.605 -405.281Z" stroke="#E3EDDA" stroke-opacity="0.53" stroke-width="8"/>
<path d="M400.801 -62.8822L401.114 -62.1629L401.427 -62.8821L401.114 -63.6015L400.801 -62.8822Z" stroke="#E3EDDA" stroke-opacity="0.53" stroke-width="8"/>
<path d="M475.417 -234.124L475.73 -234.843L476.043 -234.124L475.73 -233.405L475.417 -234.124Z" stroke="#E3EDDA" stroke-opacity="0.53" stroke-width="8"/>
<path d="M400.838 -405.281L401.081 -405.84L400.838 -406L400.594 -405.84L400.838 -405.281Z" stroke="#E3EDDA" stroke-opacity="0.53" stroke-width="8"/>
<path d="M550.309 -62.2481L550.623 -61.5287L550.936 -62.2479L550.623 -62.9672L550.309 -62.2481Z" stroke="#E3EDDA" stroke-opacity="0.53" stroke-width="8"/>
<path d="M625.202 -234.124L625.515 -234.843L625.828 -234.124L625.515 -233.405L625.202 -234.124Z" stroke="#E3EDDA" stroke-opacity="0.53" stroke-width="8"/>
<path d="M550.623 -405.281L550.866 -405.84L550.623 -406L550.379 -405.84L550.623 -405.281Z" stroke="#E3EDDA" stroke-opacity="0.53" stroke-width="8"/>
<path d="M699.818 -62.8822L700.131 -62.1628L700.445 -62.8822L700.131 -63.6016L699.818 -62.8822Z" stroke="#E3EDDA" stroke-opacity="0.53" stroke-width="8"/>
<path d="M774.71 -234.758L775.023 -235.478L775.337 -234.758L775.024 -234.039L774.71 -234.758Z" stroke="#E3EDDA" stroke-opacity="0.53" stroke-width="8"/>
<path d="M700.408 -405.281L700.651 -405.84L700.408 -406L700.164 -405.84L700.408 -405.281Z" stroke="#E3EDDA" stroke-opacity="0.53" stroke-width="8"/>
<path d="M849.603 -62.8823L849.916 -62.1629L850.229 -62.8822L849.916 -63.6016L849.603 -62.8823Z" stroke="#E3EDDA" stroke-opacity="0.53" stroke-width="8"/>
<path d="M924.219 -234.124L924.532 -234.843L924.846 -234.124L924.532 -233.405L924.219 -234.124Z" stroke="#E3EDDA" stroke-opacity="0.53" stroke-width="8"/>
<path d="M849.64 -405.281L849.883 -405.84L849.64 -406L849.396 -405.84L849.64 -405.281Z" stroke="#E3EDDA" stroke-opacity="0.53" stroke-width="8"/>
<path d="M999.111 -62.248L999.425 -61.5286L999.738 -62.2479L999.425 -62.9673L999.111 -62.248Z" stroke="#E3EDDA" stroke-opacity="0.53" stroke-width="8"/>
<path d="M999.425 -405.281L999.181 -405.84L999.425 -406L999.668 -405.84L999.425 -405.281Z" stroke="#E3EDDA" stroke-opacity="0.53" stroke-width="8"/>
<path d="M999.425 279.516L999.668 280.076L999.425 280.236L999.181 280.076L999.425 279.516Z" stroke="#E3EDDA" stroke-opacity="0.53" stroke-width="8"/>
<path d="M550.623 279.516L550.866 280.076L550.623 280.236L550.379 280.076L550.623 279.516Z" stroke="#E3EDDA" stroke-opacity="0.53" stroke-width="8"/>
<path d="M101.82 279.516L102.064 280.076L101.82 280.236L101.577 280.076L101.82 279.516Z" stroke="#E3EDDA" stroke-opacity="0.53" stroke-width="8"/>
<path d="M-346.982 279.516L-346.738 280.076L-346.982 280.236L-347.225 280.076L-346.982 279.516Z" stroke="#E3EDDA" stroke-opacity="0.53" stroke-width="8"/>
</g>
<path d="M188.435 54.9C186.915 54.9 185.462 54.7133 184.075 54.34C182.715 53.94 181.502 53.3533 180.435 52.58C179.368 51.8067 178.515 50.8467 177.875 49.7C177.262 48.5533 176.928 47.22 176.875 45.7C176.875 45.46 176.955 45.26 177.115 45.1C177.275 44.9133 177.488 44.82 177.755 44.82H183.155C183.528 44.82 183.808 44.9133 183.995 45.1C184.208 45.2867 184.382 45.5667 184.515 45.94C184.648 46.6867 184.902 47.3 185.275 47.78C185.648 48.2333 186.115 48.58 186.675 48.82C187.262 49.0333 187.915 49.14 188.635 49.14C189.968 49.14 190.995 48.7133 191.715 47.86C192.435 46.98 192.795 45.7 192.795 44.02V32.46H179.835C179.568 32.46 179.328 32.3667 179.115 32.18C178.928 31.9933 178.835 31.7533 178.835 31.46V27.5C178.835 27.2067 178.928 26.9667 179.115 26.78C179.328 26.5933 179.568 26.5 179.835 26.5H199.195C199.488 26.5 199.728 26.5933 199.915 26.78C200.128 26.9667 200.235 27.2067 200.235 27.5V44.22C200.235 46.54 199.728 48.5 198.715 50.1C197.702 51.6733 196.315 52.8733 194.555 53.7C192.795 54.5 190.755 54.9 188.435 54.9ZM217.392 54.9C214.939 54.9 212.805 54.5 210.992 53.7C209.179 52.9 207.765 51.7 206.752 50.1C205.739 48.4733 205.179 46.4467 205.072 44.02C205.045 42.8733 205.032 41.7267 205.032 40.58C205.032 39.4333 205.045 38.2733 205.072 37.1C205.179 34.7 205.739 32.6867 206.752 31.06C207.792 29.4067 209.219 28.1667 211.032 27.34C212.845 26.5133 214.965 26.1 217.392 26.1C219.792 26.1 221.899 26.5133 223.712 27.34C225.552 28.1667 226.992 29.4067 228.032 31.06C229.072 32.6867 229.632 34.7 229.712 37.1C229.765 38.2733 229.792 39.4333 229.792 40.58C229.792 41.7267 229.765 42.8733 229.712 44.02C229.605 46.4467 229.045 48.4733 228.032 50.1C227.019 51.7 225.605 52.9 223.792 53.7C221.979 54.5 219.845 54.9 217.392 54.9ZM217.392 49.14C218.805 49.14 219.952 48.7133 220.832 47.86C221.739 47.0067 222.219 45.6467 222.272 43.78C222.325 42.6067 222.352 41.5 222.352 40.46C222.352 39.42 222.325 38.34 222.272 37.22C222.219 35.9667 221.979 34.9533 221.552 34.18C221.152 33.38 220.592 32.7933 219.872 32.42C219.152 32.0467 218.325 31.86 217.392 31.86C216.485 31.86 215.672 32.0467 214.952 32.42C214.232 32.7933 213.659 33.38 213.232 34.18C212.805 34.9533 212.565 35.9667 212.512 37.22C212.485 38.34 212.472 39.42 212.472 40.46C212.472 41.5 212.485 42.6067 212.512 43.78C212.592 45.6467 213.072 47.0067 213.952 47.86C214.832 48.7133 215.979 49.14 217.392 49.14ZM235.828 54.5C235.535 54.5 235.295 54.4067 235.108 54.22C234.922 54.0333 234.828 53.7933 234.828 53.5V27.5C234.828 27.2067 234.922 26.9667 235.108 26.78C235.295 26.5933 235.535 26.5 235.828 26.5H241.188C241.482 26.5 241.722 26.5933 241.908 26.78C242.095 26.9667 242.188 27.2067 242.188 27.5V53.5C242.188 53.7933 242.095 54.0333 241.908 54.22C241.722 54.4067 241.482 54.5 241.188 54.5H235.828ZM249.197 54.5C248.904 54.5 248.664 54.4067 248.477 54.22C248.291 54.0333 248.197 53.7933 248.197 53.5V27.5C248.197 27.2067 248.291 26.9667 248.477 26.78C248.664 26.5933 248.904 26.5 249.197 26.5H253.437C253.891 26.5 254.211 26.6067 254.397 26.82C254.611 27.0067 254.744 27.1533 254.797 27.26L264.557 42.66V27.5C264.557 27.2067 264.651 26.9667 264.837 26.78C265.024 26.5933 265.264 26.5 265.557 26.5H270.357C270.651 26.5 270.891 26.5933 271.077 26.78C271.264 26.9667 271.357 27.2067 271.357 27.5V53.5C271.357 53.7667 271.264 54.0067 271.077 54.22C270.891 54.4067 270.651 54.5 270.357 54.5H266.077C265.651 54.5 265.331 54.3933 265.117 54.18C264.931 53.9667 264.811 53.82 264.757 53.74L254.997 38.94V53.5C254.997 53.7933 254.904 54.0333 254.717 54.22C254.531 54.4067 254.291 54.5 253.997 54.5H249.197ZM287.263 54.5C286.969 54.5 286.729 54.4067 286.543 54.22C286.356 54.0333 286.263 53.7933 286.263 53.5V27.5C286.263 27.2067 286.356 26.9667 286.543 26.78C286.729 26.5933 286.969 26.5 287.263 26.5H291.503C291.956 26.5 292.276 26.6067 292.463 26.82C292.676 27.0067 292.809 27.1533 292.863 27.26L302.623 42.66V27.5C302.623 27.2067 302.716 26.9667 302.903 26.78C303.089 26.5933 303.329 26.5 303.623 26.5H308.423C308.716 26.5 308.956 26.5933 309.143 26.78C309.329 26.9667 309.423 27.2067 309.423 27.5V53.5C309.423 53.7667 309.329 54.0067 309.143 54.22C308.956 54.4067 308.716 54.5 308.423 54.5H304.143C303.716 54.5 303.396 54.3933 303.183 54.18C302.996 53.9667 302.876 53.82 302.823 53.74L293.063 38.94V53.5C293.063 53.7933 292.969 54.0333 292.783 54.22C292.596 54.4067 292.356 54.5 292.063 54.5H287.263ZM326.853 54.9C324.399 54.9 322.266 54.5 320.453 53.7C318.639 52.9 317.226 51.7 316.213 50.1C315.199 48.4733 314.639 46.4467 314.533 44.02C314.506 42.8733 314.493 41.7267 314.493 40.58C314.493 39.4333 314.506 38.2733 314.533 37.1C314.639 34.7 315.199 32.6867 316.213 31.06C317.253 29.4067 318.679 28.1667 320.493 27.34C322.306 26.5133 324.426 26.1 326.853 26.1C329.253 26.1 331.359 26.5133 333.173 27.34C335.013 28.1667 336.453 29.4067 337.493 31.06C338.533 32.6867 339.093 34.7 339.173 37.1C339.226 38.2733 339.253 39.4333 339.253 40.58C339.253 41.7267 339.226 42.8733 339.173 44.02C339.066 46.4467 338.506 48.4733 337.493 50.1C336.479 51.7 335.066 52.9 333.253 53.7C331.439 54.5 329.306 54.9 326.853 54.9ZM326.853 49.14C328.266 49.14 329.413 48.7133 330.293 47.86C331.199 47.0067 331.679 45.6467 331.733 43.78C331.786 42.6067 331.813 41.5 331.813 40.46C331.813 39.42 331.786 38.34 331.733 37.22C331.679 35.9667 331.439 34.9533 331.013 34.18C330.613 33.38 330.053 32.7933 329.333 32.42C328.613 32.0467 327.786 31.86 326.853 31.86C325.946 31.86 325.133 32.0467 324.413 32.42C323.693 32.7933 323.119 33.38 322.693 34.18C322.266 34.9533 322.026 35.9667 321.973 37.22C321.946 38.34 321.933 39.42 321.933 40.46C321.933 41.5 321.946 42.6067 321.973 43.78C322.053 45.6467 322.533 47.0067 323.413 47.86C324.293 48.7133 325.439 49.14 326.853 49.14ZM348.457 54.5C348.004 54.5 347.644 54.3667 347.377 54.1C347.11 53.8333 346.95 53.5267 346.897 53.18L342.537 27.62C342.51 27.5667 342.497 27.5133 342.497 27.46C342.497 27.4067 342.497 27.3667 342.497 27.34C342.497 27.1267 342.577 26.94 342.737 26.78C342.924 26.5933 343.124 26.5 343.337 26.5H348.297C349.044 26.5 349.457 26.7933 349.537 27.38L352.137 43.02L355.017 33.78C355.097 33.5667 355.23 33.34 355.417 33.1C355.604 32.8333 355.91 32.7 356.337 32.7H359.217C359.67 32.7 359.99 32.8333 360.177 33.1C360.364 33.34 360.484 33.5667 360.537 33.78L363.417 42.98L366.017 27.38C366.097 26.7933 366.51 26.5 367.257 26.5H372.217C372.457 26.5 372.657 26.5933 372.817 26.78C372.977 26.94 373.057 27.1267 373.057 27.34C373.057 27.3667 373.057 27.4067 373.057 27.46C373.057 27.5133 373.057 27.5667 373.057 27.62L368.697 53.18C368.644 53.5267 368.484 53.8333 368.217 54.1C367.95 54.3667 367.59 54.5 367.137 54.5H363.337C362.884 54.5 362.537 54.38 362.297 54.14C362.057 53.9 361.897 53.6733 361.817 53.46L357.777 42.02L353.737 53.46C353.657 53.6733 353.497 53.9 353.257 54.14C353.044 54.38 352.71 54.5 352.257 54.5H348.457ZM378.3 45.66C378.007 45.66 377.767 45.5667 377.58 45.38C377.393 45.1667 377.3 44.9267 377.3 44.66V27.5C377.3 27.2067 377.393 26.9667 377.58 26.78C377.767 26.5933 378.007 26.5 378.3 26.5H382.9C383.167 26.5 383.393 26.5933 383.58 26.78C383.793 26.9667 383.9 27.2067 383.9 27.5V44.66C383.9 44.9267 383.793 45.1667 383.58 45.38C383.393 45.5667 383.167 45.66 382.9 45.66H378.3ZM378.14 54.5C377.847 54.5 377.607 54.4067 377.42 54.22C377.233 54.0333 377.14 53.7933 377.14 53.5V48.58C377.14 48.2867 377.233 48.0467 377.42 47.86C377.607 47.6467 377.847 47.54 378.14 47.54H383.06C383.327 47.54 383.553 47.6467 383.74 47.86C383.953 48.0467 384.06 48.2867 384.06 48.58V53.5C384.06 53.7933 383.953 54.0333 383.74 54.22C383.553 54.4067 383.327 54.5 383.06 54.5H378.14Z" fill="#FEFFFE"/>
<defs>
<linearGradient id="paint0_linear_126_43" x1="-177.499" y1="103" x2="46.1455" y2="-291.715" gradientUnits="userSpaceOnUse">
<stop stop-color="#C402C8"/>
<stop offset="0.460267" stop-color="#77CC8C"/>
<stop offset="1" stop-color="#0087A5"/>
</linearGradient>
<clipPath id="clip0_126_43">
<rect x="0.000976562" width="561" height="74.9737" rx="37.4868" fill="white"/>
</clipPath>
</defs>
</svg>
