<svg width="561" height="77" viewBox="0 0 561 77" fill="none" xmlns="http://www.w3.org/2000/svg">
<rect x="0.000976562" width="561" height="77" rx="38.5" fill="url(#paint0_linear_126_43)"/>
<g clip-path="url(#clip0_126_43)">
<path d="M-197.197 280.236L101.82 -406L400.838 280.236M-47.4119 280.236L251.605 -406L550.623 280.236L849.64 -406L1148.66 280.236M-645.999 280.236L-346.982 -406L-47.9645 280.236M-496.214 280.236L-197.197 -406L101.82 280.236C205.044 43.3416 268.179 -101.553 362.099 -317.096M1298.44 -406L999.425 280.236L700.407 -406L401.39 280.236M700.407 280.236L999.425 -406L1298.44 280.236M1149.21 -406L850.192 280.236M251.605 280.236L550.623 -406L849.64 280.236M699.855 280.236L400.838 -406C387.765 -376 375.336 -347.475 363.406 -320.095M-645.999 -406L-346.982 280.236L-47.9646 -406L251.053 280.236M-496.767 -406L-197.75 280.236" stroke="#E3EDDA" stroke-opacity="0.53"/>
<path d="M-421.598 109.713L-421.911 108.994L-421.598 108.275L-421.284 108.994L-421.598 109.713Z" stroke="#E3EDDA" stroke-opacity="0.53" stroke-width="8"/>
<path d="M-272.052 108.994L-272.366 109.713L-272.679 108.994L-272.366 108.275L-272.052 108.994Z" stroke="#E3EDDA" stroke-opacity="0.53" stroke-width="8"/>
<path d="M-122.581 109.713L-122.894 108.994L-122.581 108.275L-122.267 108.994L-122.581 109.713Z" stroke="#E3EDDA" stroke-opacity="0.53" stroke-width="8"/>
<path d="M27.2043 109.713L26.8909 108.994L27.2043 108.275L27.5177 108.994L27.2043 109.713Z" stroke="#E3EDDA" stroke-opacity="0.53" stroke-width="8"/>
<path d="M176.75 108.994L176.437 109.713L176.123 108.994L176.437 108.275L176.75 108.994Z" stroke="#E3EDDA" stroke-opacity="0.53" stroke-width="8"/>
<path d="M326.222 109.713L325.908 108.994L326.222 108.275L326.535 108.994L326.222 109.713Z" stroke="#E3EDDA" stroke-opacity="0.53" stroke-width="8"/>
<path d="M476.006 109.713L475.693 108.994L476.006 108.275L476.32 108.994L476.006 109.713Z" stroke="#E3EDDA" stroke-opacity="0.53" stroke-width="8"/>
<path d="M625.552 108.994L625.239 109.713L624.925 108.994L625.239 108.275L625.552 108.994Z" stroke="#E3EDDA" stroke-opacity="0.53" stroke-width="8"/>
<path d="M775.024 109.713L774.71 108.994L775.023 108.274L775.337 108.994L775.024 109.713Z" stroke="#E3EDDA" stroke-opacity="0.53" stroke-width="8"/>
<path d="M924.809 109.713L924.495 108.994L924.808 108.275L925.122 108.994L924.809 109.713Z" stroke="#E3EDDA" stroke-opacity="0.53" stroke-width="8"/>
<path d="M1074.35 108.994L1074.04 109.713L1073.73 108.994L1074.04 108.275L1074.35 108.994Z" stroke="#E3EDDA" stroke-opacity="0.53" stroke-width="8"/>
<path d="M1149.25 -62.8822L1148.93 -62.1628L1148.62 -62.8822L1148.93 -63.6016L1149.25 -62.8822Z" stroke="#E3EDDA" stroke-opacity="0.53" stroke-width="8"/>
<path d="M1074.32 -234.843L1074.63 -234.124L1074.32 -233.405L1074 -234.124L1074.32 -234.843Z" stroke="#E3EDDA" stroke-opacity="0.53" stroke-width="8"/>
<path d="M-422.188 -234.124L-421.874 -234.843L-421.561 -234.124L-421.874 -233.405L-422.188 -234.124Z" stroke="#E3EDDA" stroke-opacity="0.53" stroke-width="8"/>
<path d="M-496.804 -62.8821L-496.49 -63.6015L-496.177 -62.8822L-496.49 -62.1628L-496.804 -62.8821Z" stroke="#E3EDDA" stroke-opacity="0.53" stroke-width="8"/>
<path d="M-347.295 -62.2479L-346.982 -61.5285L-346.668 -62.248L-346.982 -62.9673L-347.295 -62.2479Z" stroke="#E3EDDA" stroke-opacity="0.53" stroke-width="8"/>
<path d="M-272.403 -234.124L-272.089 -234.843L-271.776 -234.124L-272.089 -233.405L-272.403 -234.124Z" stroke="#E3EDDA" stroke-opacity="0.53" stroke-width="8"/>
<path d="M-346.982 -405.281L-346.738 -405.84L-346.982 -406L-347.225 -405.84L-346.982 -405.281Z" stroke="#E3EDDA" stroke-opacity="0.53" stroke-width="8"/>
<path d="M-197.787 -62.8821L-197.473 -62.1628L-197.16 -62.8822L-197.473 -63.6015L-197.787 -62.8821Z" stroke="#E3EDDA" stroke-opacity="0.53" stroke-width="8"/>
<path d="M-122.894 -234.758L-122.581 -235.478L-122.267 -234.758L-122.581 -234.039L-122.894 -234.758Z" stroke="#E3EDDA" stroke-opacity="0.53" stroke-width="8"/>
<path d="M-197.197 -405.281L-196.953 -405.84L-197.197 -406L-197.44 -405.84L-197.197 -405.281Z" stroke="#E3EDDA" stroke-opacity="0.53" stroke-width="8"/>
<path d="M-48.0016 -62.8821L-47.6882 -62.1628L-47.3747 -62.8822L-47.6881 -63.6015L-48.0016 -62.8821Z" stroke="#E3EDDA" stroke-opacity="0.53" stroke-width="8"/>
<path d="M26.6145 -234.124L26.928 -234.843L27.2414 -234.124L26.9279 -233.405L26.6145 -234.124Z" stroke="#E3EDDA" stroke-opacity="0.53" stroke-width="8"/>
<path d="M-47.9646 -405.281L-47.7209 -405.84L-47.9645 -406L-48.2082 -405.84L-47.9646 -405.281Z" stroke="#E3EDDA" stroke-opacity="0.53" stroke-width="8"/>
<path d="M101.507 -62.2479L101.82 -61.5286L102.134 -62.248L101.82 -62.9672L101.507 -62.2479Z" stroke="#E3EDDA" stroke-opacity="0.53" stroke-width="8"/>
<path d="M176.399 -234.124L176.713 -234.843L177.026 -234.124L176.713 -233.405L176.399 -234.124Z" stroke="#E3EDDA" stroke-opacity="0.53" stroke-width="8"/>
<path d="M101.82 -405.281L102.064 -405.84L101.82 -406L101.577 -405.84L101.82 -405.281Z" stroke="#E3EDDA" stroke-opacity="0.53" stroke-width="8"/>
<path d="M251.016 -62.8821L251.329 -62.1629L251.642 -62.8822L251.329 -63.6015L251.016 -62.8821Z" stroke="#E3EDDA" stroke-opacity="0.53" stroke-width="8"/>
<path d="M325.908 -234.758L326.222 -235.477L326.535 -234.758L326.222 -234.039L325.908 -234.758Z" stroke="#E3EDDA" stroke-opacity="0.53" stroke-width="8"/>
<path d="M251.605 -405.281L251.849 -405.84L251.605 -406L251.362 -405.84L251.605 -405.281Z" stroke="#E3EDDA" stroke-opacity="0.53" stroke-width="8"/>
<path d="M400.801 -62.8822L401.114 -62.1629L401.427 -62.8821L401.114 -63.6015L400.801 -62.8822Z" stroke="#E3EDDA" stroke-opacity="0.53" stroke-width="8"/>
<path d="M475.417 -234.124L475.73 -234.843L476.043 -234.124L475.73 -233.405L475.417 -234.124Z" stroke="#E3EDDA" stroke-opacity="0.53" stroke-width="8"/>
<path d="M400.838 -405.281L401.081 -405.84L400.838 -406L400.594 -405.84L400.838 -405.281Z" stroke="#E3EDDA" stroke-opacity="0.53" stroke-width="8"/>
<path d="M550.309 -62.2481L550.623 -61.5287L550.936 -62.2479L550.623 -62.9672L550.309 -62.2481Z" stroke="#E3EDDA" stroke-opacity="0.53" stroke-width="8"/>
<path d="M625.202 -234.124L625.515 -234.843L625.828 -234.124L625.515 -233.405L625.202 -234.124Z" stroke="#E3EDDA" stroke-opacity="0.53" stroke-width="8"/>
<path d="M550.623 -405.281L550.866 -405.84L550.623 -406L550.379 -405.84L550.623 -405.281Z" stroke="#E3EDDA" stroke-opacity="0.53" stroke-width="8"/>
<path d="M699.818 -62.8822L700.131 -62.1628L700.445 -62.8822L700.131 -63.6016L699.818 -62.8822Z" stroke="#E3EDDA" stroke-opacity="0.53" stroke-width="8"/>
<path d="M774.71 -234.758L775.023 -235.478L775.337 -234.758L775.024 -234.039L774.71 -234.758Z" stroke="#E3EDDA" stroke-opacity="0.53" stroke-width="8"/>
<path d="M700.408 -405.281L700.651 -405.84L700.408 -406L700.164 -405.84L700.408 -405.281Z" stroke="#E3EDDA" stroke-opacity="0.53" stroke-width="8"/>
<path d="M849.603 -62.8823L849.916 -62.1629L850.229 -62.8822L849.916 -63.6016L849.603 -62.8823Z" stroke="#E3EDDA" stroke-opacity="0.53" stroke-width="8"/>
<path d="M924.219 -234.124L924.532 -234.843L924.846 -234.124L924.532 -233.405L924.219 -234.124Z" stroke="#E3EDDA" stroke-opacity="0.53" stroke-width="8"/>
<path d="M849.64 -405.281L849.883 -405.84L849.64 -406L849.396 -405.84L849.64 -405.281Z" stroke="#E3EDDA" stroke-opacity="0.53" stroke-width="8"/>
<path d="M999.111 -62.248L999.425 -61.5286L999.738 -62.2479L999.425 -62.9673L999.111 -62.248Z" stroke="#E3EDDA" stroke-opacity="0.53" stroke-width="8"/>
<path d="M999.425 -405.281L999.181 -405.84L999.425 -406L999.668 -405.84L999.425 -405.281Z" stroke="#E3EDDA" stroke-opacity="0.53" stroke-width="8"/>
<path d="M999.425 279.516L999.668 280.076L999.425 280.236L999.181 280.076L999.425 279.516Z" stroke="#E3EDDA" stroke-opacity="0.53" stroke-width="8"/>
<path d="M550.623 279.516L550.866 280.076L550.623 280.236L550.379 280.076L550.623 279.516Z" stroke="#E3EDDA" stroke-opacity="0.53" stroke-width="8"/>
<path d="M101.82 279.516L102.064 280.076L101.82 280.236L101.577 280.076L101.82 279.516Z" stroke="#E3EDDA" stroke-opacity="0.53" stroke-width="8"/>
<path d="M-346.982 279.516L-346.738 280.076L-346.982 280.236L-347.225 280.076L-346.982 279.516Z" stroke="#E3EDDA" stroke-opacity="0.53" stroke-width="8"/>
</g>
<defs>
<linearGradient id="paint0_linear_126_43" x1="-177.499" y1="103" x2="46.1455" y2="-291.715" gradientUnits="userSpaceOnUse">
<stop stop-color="#C402C8"/>
<stop offset="0.460267" stop-color="#77CC8C"/>
<stop offset="1" stop-color="#0087A5"/>
</linearGradient>
<clipPath id="clip0_126_43">
<rect x="0.000976562" width="561" height="74.9737" rx="37.4868" fill="white"/>
</clipPath>
</defs>
</svg>
