<svg width="561" height="77" viewBox="0 0 561 77" fill="none" xmlns="http://www.w3.org/2000/svg">
<rect width="561" height="77" fill="url(#paint0_linear_1224_309)"/>
<g clip-path="url(#clip0_1224_309)">
<path d="M-197.198 280.236L101.819 -406L400.837 280.236M-47.4129 280.236L251.604 -406L550.622 280.236L849.639 -406L1148.66 280.236M-646 280.236L-346.983 -406L-47.9655 280.236M-496.215 280.236L-197.198 -406L101.819 280.236C205.043 43.3416 268.178 -101.553 362.098 -317.096M1298.44 -406L999.424 280.236L700.406 -406L401.389 280.236M700.406 280.236L999.424 -406L1298.44 280.236M1149.21 -406L850.191 280.236M251.604 280.236L550.622 -406L849.639 280.236M699.854 280.236L400.837 -406C387.764 -376 375.335 -347.475 363.405 -320.095M-646 -406L-346.983 280.236L-47.9656 -406L251.052 280.236M-496.768 -406L-197.75 280.236" stroke="#E3EDDA" stroke-opacity="0.53"/>
<path d="M-421.599 109.713L-421.912 108.994L-421.599 108.275L-421.285 108.994L-421.599 109.713Z" stroke="#E3EDDA" stroke-opacity="0.53" stroke-width="8"/>
<path d="M-272.053 108.994L-272.367 109.713L-272.68 108.994L-272.367 108.275L-272.053 108.994Z" stroke="#E3EDDA" stroke-opacity="0.53" stroke-width="8"/>
<path d="M-122.582 109.713L-122.895 108.994L-122.582 108.275L-122.268 108.994L-122.582 109.713Z" stroke="#E3EDDA" stroke-opacity="0.53" stroke-width="8"/>
<path d="M27.2033 109.713L26.8899 108.994L27.2034 108.275L27.5168 108.994L27.2033 109.713Z" stroke="#E3EDDA" stroke-opacity="0.53" stroke-width="8"/>
<path d="M176.749 108.994L176.436 109.713L176.122 108.994L176.436 108.275L176.749 108.994Z" stroke="#E3EDDA" stroke-opacity="0.53" stroke-width="8"/>
<path d="M326.221 109.713L325.907 108.994L326.221 108.275L326.534 108.994L326.221 109.713Z" stroke="#E3EDDA" stroke-opacity="0.53" stroke-width="8"/>
<path d="M476.005 109.713L475.692 108.994L476.005 108.275L476.319 108.994L476.005 109.713Z" stroke="#E3EDDA" stroke-opacity="0.53" stroke-width="8"/>
<path d="M625.551 108.994L625.238 109.713L624.924 108.994L625.238 108.275L625.551 108.994Z" stroke="#E3EDDA" stroke-opacity="0.53" stroke-width="8"/>
<path d="M775.023 109.713L774.709 108.994L775.023 108.274L775.336 108.994L775.023 109.713Z" stroke="#E3EDDA" stroke-opacity="0.53" stroke-width="8"/>
<path d="M924.808 109.713L924.494 108.994L924.807 108.275L925.121 108.994L924.808 109.713Z" stroke="#E3EDDA" stroke-opacity="0.53" stroke-width="8"/>
<path d="M1074.35 108.994L1074.04 109.713L1073.73 108.994L1074.04 108.275L1074.35 108.994Z" stroke="#E3EDDA" stroke-opacity="0.53" stroke-width="8"/>
<path d="M1149.25 -62.8822L1148.93 -62.1628L1148.62 -62.8822L1148.93 -63.6016L1149.25 -62.8822Z" stroke="#E3EDDA" stroke-opacity="0.53" stroke-width="8"/>
<path d="M1074.32 -234.843L1074.63 -234.124L1074.32 -233.405L1074 -234.124L1074.32 -234.843Z" stroke="#E3EDDA" stroke-opacity="0.53" stroke-width="8"/>
<path d="M-422.189 -234.124L-421.875 -234.843L-421.562 -234.124L-421.875 -233.405L-422.189 -234.124Z" stroke="#E3EDDA" stroke-opacity="0.53" stroke-width="8"/>
<path d="M-496.805 -62.8821L-496.491 -63.6015L-496.178 -62.8822L-496.491 -62.1628L-496.805 -62.8821Z" stroke="#E3EDDA" stroke-opacity="0.53" stroke-width="8"/>
<path d="M-347.296 -62.2479L-346.983 -61.5285L-346.669 -62.248L-346.983 -62.9673L-347.296 -62.2479Z" stroke="#E3EDDA" stroke-opacity="0.53" stroke-width="8"/>
<path d="M-272.404 -234.124L-272.09 -234.843L-271.777 -234.124L-272.09 -233.405L-272.404 -234.124Z" stroke="#E3EDDA" stroke-opacity="0.53" stroke-width="8"/>
<path d="M-346.983 -405.281L-346.739 -405.84L-346.983 -406L-347.226 -405.84L-346.983 -405.281Z" stroke="#E3EDDA" stroke-opacity="0.53" stroke-width="8"/>
<path d="M-197.788 -62.8821L-197.474 -62.1628L-197.161 -62.8822L-197.474 -63.6015L-197.788 -62.8821Z" stroke="#E3EDDA" stroke-opacity="0.53" stroke-width="8"/>
<path d="M-122.895 -234.758L-122.582 -235.478L-122.268 -234.758L-122.582 -234.039L-122.895 -234.758Z" stroke="#E3EDDA" stroke-opacity="0.53" stroke-width="8"/>
<path d="M-197.198 -405.281L-196.954 -405.84L-197.198 -406L-197.441 -405.84L-197.198 -405.281Z" stroke="#E3EDDA" stroke-opacity="0.53" stroke-width="8"/>
<path d="M-48.0026 -62.8821L-47.6892 -62.1628L-47.3757 -62.8822L-47.6891 -63.6015L-48.0026 -62.8821Z" stroke="#E3EDDA" stroke-opacity="0.53" stroke-width="8"/>
<path d="M26.6135 -234.124L26.927 -234.843L27.2404 -234.124L26.9269 -233.405L26.6135 -234.124Z" stroke="#E3EDDA" stroke-opacity="0.53" stroke-width="8"/>
<path d="M-47.9655 -405.281L-47.7219 -405.84L-47.9655 -406L-48.2092 -405.84L-47.9655 -405.281Z" stroke="#E3EDDA" stroke-opacity="0.53" stroke-width="8"/>
<path d="M101.506 -62.2479L101.819 -61.5286L102.133 -62.248L101.819 -62.9672L101.506 -62.2479Z" stroke="#E3EDDA" stroke-opacity="0.53" stroke-width="8"/>
<path d="M176.398 -234.124L176.712 -234.843L177.025 -234.124L176.712 -233.405L176.398 -234.124Z" stroke="#E3EDDA" stroke-opacity="0.53" stroke-width="8"/>
<path d="M101.819 -405.281L102.063 -405.84L101.819 -406L101.576 -405.84L101.819 -405.281Z" stroke="#E3EDDA" stroke-opacity="0.53" stroke-width="8"/>
<path d="M251.015 -62.8821L251.328 -62.1629L251.641 -62.8822L251.328 -63.6015L251.015 -62.8821Z" stroke="#E3EDDA" stroke-opacity="0.53" stroke-width="8"/>
<path d="M325.907 -234.758L326.221 -235.477L326.534 -234.758L326.221 -234.039L325.907 -234.758Z" stroke="#E3EDDA" stroke-opacity="0.53" stroke-width="8"/>
<path d="M251.604 -405.281L251.848 -405.84L251.604 -406L251.361 -405.84L251.604 -405.281Z" stroke="#E3EDDA" stroke-opacity="0.53" stroke-width="8"/>
<path d="M400.8 -62.8822L401.113 -62.1629L401.426 -62.8821L401.113 -63.6015L400.8 -62.8822Z" stroke="#E3EDDA" stroke-opacity="0.53" stroke-width="8"/>
<path d="M475.416 -234.124L475.729 -234.843L476.043 -234.124L475.729 -233.405L475.416 -234.124Z" stroke="#E3EDDA" stroke-opacity="0.53" stroke-width="8"/>
<path d="M400.837 -405.281L401.08 -405.84L400.837 -406L400.593 -405.84L400.837 -405.281Z" stroke="#E3EDDA" stroke-opacity="0.53" stroke-width="8"/>
<path d="M550.308 -62.2481L550.622 -61.5287L550.935 -62.2479L550.622 -62.9672L550.308 -62.2481Z" stroke="#E3EDDA" stroke-opacity="0.53" stroke-width="8"/>
<path d="M625.201 -234.124L625.514 -234.843L625.827 -234.124L625.514 -233.405L625.201 -234.124Z" stroke="#E3EDDA" stroke-opacity="0.53" stroke-width="8"/>
<path d="M550.622 -405.281L550.865 -405.84L550.622 -406L550.378 -405.84L550.622 -405.281Z" stroke="#E3EDDA" stroke-opacity="0.53" stroke-width="8"/>
<path d="M699.817 -62.8822L700.13 -62.1628L700.444 -62.8822L700.13 -63.6016L699.817 -62.8822Z" stroke="#E3EDDA" stroke-opacity="0.53" stroke-width="8"/>
<path d="M774.709 -234.758L775.023 -235.478L775.336 -234.758L775.023 -234.039L774.709 -234.758Z" stroke="#E3EDDA" stroke-opacity="0.53" stroke-width="8"/>
<path d="M700.407 -405.281L700.65 -405.84L700.407 -406L700.163 -405.84L700.407 -405.281Z" stroke="#E3EDDA" stroke-opacity="0.53" stroke-width="8"/>
<path d="M849.602 -62.8823L849.915 -62.1629L850.228 -62.8822L849.915 -63.6016L849.602 -62.8823Z" stroke="#E3EDDA" stroke-opacity="0.53" stroke-width="8"/>
<path d="M924.218 -234.124L924.531 -234.843L924.845 -234.124L924.531 -233.405L924.218 -234.124Z" stroke="#E3EDDA" stroke-opacity="0.53" stroke-width="8"/>
<path d="M849.639 -405.281L849.882 -405.84L849.639 -406L849.395 -405.84L849.639 -405.281Z" stroke="#E3EDDA" stroke-opacity="0.53" stroke-width="8"/>
<path d="M999.11 -62.248L999.424 -61.5286L999.737 -62.2479L999.424 -62.9673L999.11 -62.248Z" stroke="#E3EDDA" stroke-opacity="0.53" stroke-width="8"/>
<path d="M999.424 -405.281L999.18 -405.84L999.424 -406L999.667 -405.84L999.424 -405.281Z" stroke="#E3EDDA" stroke-opacity="0.53" stroke-width="8"/>
<path d="M999.424 279.516L999.667 280.076L999.424 280.236L999.18 280.076L999.424 279.516Z" stroke="#E3EDDA" stroke-opacity="0.53" stroke-width="8"/>
<path d="M550.622 279.516L550.865 280.076L550.622 280.236L550.378 280.076L550.622 279.516Z" stroke="#E3EDDA" stroke-opacity="0.53" stroke-width="8"/>
<path d="M101.819 279.516L102.063 280.076L101.819 280.236L101.576 280.076L101.819 279.516Z" stroke="#E3EDDA" stroke-opacity="0.53" stroke-width="8"/>
<path d="M-346.983 279.516L-346.739 280.076L-346.983 280.236L-347.226 280.076L-346.983 279.516Z" stroke="#E3EDDA" stroke-opacity="0.53" stroke-width="8"/>
</g>
<defs>
<linearGradient id="paint0_linear_1224_309" x1="-177.5" y1="103" x2="46.1445" y2="-291.715" gradientUnits="userSpaceOnUse">
<stop stop-color="#C402C8"/>
<stop offset="0.460267" stop-color="#77CC8C"/>
<stop offset="1" stop-color="#0087A5"/>
</linearGradient>
<clipPath id="clip0_1224_309">
<rect width="561" height="74.9737" fill="white"/>
</clipPath>
</defs>
</svg>
