<svg width="227" height="48" viewBox="0 0 227 48" fill="none" xmlns="http://www.w3.org/2000/svg">
<path fill-rule="evenodd" clip-rule="evenodd" d="M32.3064 19.6473H26.5609C28.1876 17.894 29.164 15.5855 29.164 13.0982C29.164 11.7626 28.6858 10.5013 27.8633 9.5871C27.044 8.67644 25.9553 8.18639 24.8433 8.18639C23.7313 8.18639 22.6426 8.67644 21.8233 9.5871C21.0008 10.5013 20.5226 11.7626 20.5226 13.0982V14.3652C19.7003 15.2707 19.7003 15.2707 18.9734 15.9978C18.2464 15.2707 18.2464 15.2707 17.3802 14.3652V13.0982C17.3802 11.7626 16.9019 10.5013 16.0794 9.5871C15.2602 8.67644 14.1715 8.18639 13.0595 8.18639C11.9475 8.18639 10.8588 8.67644 10.0395 9.5871C9.21699 10.5013 8.73873 11.7626 8.73873 13.0982C8.73873 15.5855 9.71514 17.894 11.3418 19.6473H5.59645C5.59638 17.1914 5.59638 15.3751 5.59638 13.0982C5.59638 5.75971 11.6795 0 18.9514 0C26.2233 0 32.3064 5.75971 32.3064 13.0982V19.6473ZM18.9514 3.27455C21.0622 3.27455 23.0008 3.88261 24.6087 4.91586C22.6822 4.98211 20.8673 5.86194 19.5308 7.3475C19.3236 7.57785 19.1303 7.81999 18.9514 8.07237C18.7725 7.81999 18.5791 7.57785 18.3719 7.3475C17.0354 5.86194 15.2205 4.98211 13.2941 4.91586C14.902 3.88261 16.8405 3.27455 18.9514 3.27455Z" fill="url(#paint0_linear_129_247)"/>
<path d="M13.0595 11.4609C12.1917 11.4609 11.4883 12.194 11.4883 13.0982C11.4883 14.0025 12.1917 14.7355 13.0595 14.7355H13.0742C13.9419 14.7355 14.6454 14.0025 14.6454 13.0982C14.6454 12.194 13.9419 11.4609 13.0742 11.4609H13.0595Z" fill="url(#paint1_linear_129_247)"/>
<path d="M24.8433 11.4609C23.9755 11.4609 23.2721 12.194 23.2721 13.0982C23.2721 14.0025 23.9755 14.7355 24.8433 14.7355H24.858C25.7258 14.7355 26.4292 14.0025 26.4292 13.0982C26.4292 12.194 25.7258 11.4609 24.858 11.4609H24.8433Z" fill="url(#paint2_linear_129_247)"/>
<path d="M26.5828 7.71859H33.5981C33.9642 7.71859 34.3152 7.57928 34.574 7.33121C34.8329 7.08315 34.9774 6.58521 34.9774 6.2344C34.9774 5.88358 34.8325 5.54727 34.5736 5.29921C34.3147 5.05115 33.9638 4.91183 33.5976 4.91183H26.6966L26.5828 7.71859Z" fill="url(#paint3_linear_129_247)"/>
<path d="M11.1928 7.71859H4.17746C3.81134 7.71859 3.4604 7.57928 3.20151 7.33121C2.94263 7.08315 2.79819 6.58521 2.79819 6.2344C2.79819 5.88358 2.94309 5.54727 3.20198 5.29921C3.46086 5.05115 3.81181 4.91183 4.17793 4.91183H11.0789L11.1928 7.71859Z" fill="url(#paint4_linear_129_247)"/>
<path d="M35.4212 33.3669C35.6735 33.0153 35.8081 32.6019 35.8081 32.1791C35.8081 31.6121 35.5663 31.0683 35.1358 30.6673C34.7053 30.2664 34.1215 30.0411 33.5127 30.0411C33.0587 30.0411 32.6149 30.1665 32.2374 30.4014C31.86 30.6363 31.5658 30.9703 31.392 31.3609C31.2183 31.7516 31.1728 32.1814 31.2614 32.5962C31.35 33.0109 31.5686 33.3918 31.8896 33.6908C32.2106 33.9898 32.6196 34.1935 33.0649 34.276C33.5102 34.3585 33.9717 34.3161 34.3911 34.1543C34.8105 33.9925 35.169 33.7185 35.4212 33.3669Z" fill="url(#paint5_linear_129_247)"/>
<path fill-rule="evenodd" clip-rule="evenodd" d="M6.99547 11.227H5.04986C3.71055 11.227 2.4261 11.7226 1.47907 12.6047C0.532037 13.4868 0 14.6831 0 15.9306V43.2965C0 44.5439 0.532037 45.7403 1.47907 46.6224C2.4261 47.5045 3.71055 48 5.04986 48H41.7761C42.6284 48 43.4458 47.6847 44.0484 47.1233C44.6511 46.562 44.9896 45.8007 44.9896 45.0069V21.0617C44.9896 20.2678 44.6511 19.5065 44.0484 18.9452C43.4458 18.3839 42.6284 18.0685 41.7761 18.0685H5.04986C4.44108 18.0685 3.85724 17.8433 3.42677 17.4423C2.9963 17.0414 2.75447 16.4976 2.75447 15.9306C2.75447 15.3635 2.9963 14.8197 3.42677 14.4188C3.85724 14.0178 4.44108 13.7926 5.04986 13.7926H6.99547V11.227ZM42.1007 45.3092C42.1868 45.229 42.2352 45.1203 42.2352 45.0069V21.0617C42.2352 20.9483 42.1868 20.8395 42.1007 20.7593C42.0146 20.6791 41.8979 20.6341 41.7761 20.6341H5.04986C4.55972 20.6346 4.25223 20.6345 3.81395 20.6343C3.37567 20.6341 2.79819 20.349 2.75447 20.349V43.2965C2.75447 43.8635 2.9963 44.4073 3.42677 44.8083C3.85724 45.2092 4.44108 45.4344 5.04986 45.4344H41.7761C41.8979 45.4344 42.0146 45.3894 42.1007 45.3092Z" fill="url(#paint6_linear_129_247)"/>
<path d="M34.3612 13.7926H30.7801V11.227H34.3612C35.2135 11.227 36.0308 11.5424 36.6335 12.1037C37.2361 12.665 37.5747 13.4264 37.5747 14.2202V18.2439H34.8202V14.2202C34.8202 14.1068 34.7719 13.998 34.6858 13.9178C34.5997 13.8376 34.4829 13.7926 34.3612 13.7926Z" fill="url(#paint7_linear_129_247)"/>
<path d="M216.163 35.0004V39.8841H226.88V43.5049H215.911C213.729 43.5049 211.966 41.8489 211.966 39.828V26.3555C211.966 24.3347 213.729 22.6787 215.911 22.6787H226.88V26.2994H216.163V31.3796H226.041V35.0004H216.163Z" fill="url(#paint8_linear_129_247)"/>
<path d="M193.248 28.629C193.248 25.3451 196.718 22.6787 200.999 22.6787H203.798C205.896 22.6787 208.89 23.5488 210.289 24.9522L206.652 27.7589C206.008 26.8608 204.833 26.2994 203.798 26.2994H200.999C199.041 26.2994 197.446 27.3379 197.446 28.629C197.446 31.8287 210.569 30.5376 210.569 37.5545C210.569 40.8384 206.959 43.5049 202.538 43.5049H199.74C197.558 43.5049 194.424 42.6348 192.969 41.2314L196.578 38.4246C197.278 39.3228 198.593 39.8841 199.74 39.8841H202.538C204.665 39.8841 206.372 38.8456 206.372 37.5545C206.372 33.9619 193.248 35.5898 193.248 28.629Z" fill="url(#paint9_linear_129_247)"/>
<path d="M187.406 22.6787H191.604V43.5049H187.406V22.6787Z" fill="url(#paint10_linear_129_247)"/>
<path d="M165.9 39.2105L170.545 25.71H174.966L179.611 39.2105L181.206 22.6787H185.683L183.781 40.0245C183.501 42.4383 181.682 43.6452 179.919 43.6452C178.548 43.6452 177.205 42.9154 176.645 41.4279L172.756 30.0324L168.866 41.4279C168.307 42.9154 166.963 43.6452 165.592 43.6452C163.829 43.6452 162.011 42.4383 161.731 40.0245L159.828 22.6787H164.305L165.9 39.2105Z" fill="url(#paint11_linear_129_247)"/>
<path d="M153.282 43.5048H149.085V26.3555C149.085 24.3346 150.848 22.6787 153.03 22.6787H158.548V26.3555L153.282 26.2994V43.5048ZM153.282 22.6787L149.531 26.2994H143.488L144.736 22.6787H153.282Z" fill="url(#paint12_linear_129_247)"/>
<path d="M130.474 35.0003V39.8841H141.191V43.5048H130.222C128.039 43.5048 126.276 41.8488 126.276 39.828V26.3555C126.276 24.3346 128.039 22.6787 130.222 22.6787H142.555L141.191 26.2994H130.474V31.3796H140.351V35.0003H130.474Z" fill="url(#paint13_linear_129_247)"/>
<path d="M114.873 22.6787H117.671C119.853 22.6787 122.987 23.5488 124.442 24.9522L120.805 27.7589C120.105 26.8608 118.818 26.2994 117.671 26.2994H114.873C112.774 26.2994 111.095 28.2361 111.095 30.5938V35.5898C111.095 37.9475 112.802 39.8841 114.929 39.8841H120.329V33.1198H124.526V39.828C124.526 41.8489 122.763 43.5049 120.581 43.5049H114.929C110.507 43.5049 106.898 39.9683 106.898 35.5898V30.5938C106.898 26.2152 110.479 22.6787 114.873 22.6787Z" fill="url(#paint14_linear_129_247)"/>
<path d="M102 35.5898V30.5937C102 28.236 100.293 26.2994 98.1662 26.2994H92.7656V39.8841H98.1662C100.293 39.8841 102 37.9474 102 35.5898ZM88.5684 26.3555C88.5684 24.3346 90.3312 22.6787 92.5138 22.6787H98.1662C102.587 22.6787 106.197 26.2152 106.197 30.5937V35.5898C106.197 39.9683 102.587 43.5048 98.1662 43.5048H88.5684V26.3555Z" fill="url(#paint15_linear_129_247)"/>
<path d="M68.2197 22.6787H72.417V35.5898C72.417 37.9475 74.1239 39.8841 76.2505 39.8841H78.489C80.6157 39.8841 82.3226 37.9475 82.3226 35.5898V22.6787H86.5198V35.5898C86.5198 39.9683 82.9102 43.5049 78.489 43.5049H76.2505C71.8293 43.5049 68.2197 39.9683 68.2197 35.5898V22.6787Z" fill="url(#paint16_linear_129_247)"/>
<path d="M63.7597 32.783C65.8863 33.9057 66.9496 35.7582 66.9496 37.6387C66.9496 40.5858 64.3193 43.5049 59.0587 43.5049H49.4609V26.3555C49.4609 24.3347 51.2238 22.6787 53.4064 22.6787H59.0587C63.5638 22.6787 65.8304 25.5697 65.8304 28.4606C65.8304 30.0605 65.1308 31.6603 63.7597 32.783ZM55.3212 31.1832H59.0587C60.8496 31.1832 61.745 29.9482 61.745 28.7413C61.745 27.5063 60.8496 26.2994 59.0587 26.2994H53.6582V39.8841H59.0587C61.6051 39.8841 62.8643 38.6211 62.8643 37.358C62.8643 36.095 61.6051 34.8039 59.0587 34.8039H55.3212V31.1832Z" fill="url(#paint17_linear_129_247)"/>
<defs>
<linearGradient id="paint0_linear_129_247" x1="-22" y1="34" x2="227" y2="34.5" gradientUnits="userSpaceOnUse">
<stop stop-color="#98DEA3"/>
<stop offset="1" stop-color="#31B4D8"/>
</linearGradient>
<linearGradient id="paint1_linear_129_247" x1="-22" y1="34" x2="227" y2="34.5" gradientUnits="userSpaceOnUse">
<stop stop-color="#98DEA3"/>
<stop offset="1" stop-color="#31B4D8"/>
</linearGradient>
<linearGradient id="paint2_linear_129_247" x1="-22" y1="34" x2="227" y2="34.5" gradientUnits="userSpaceOnUse">
<stop stop-color="#98DEA3"/>
<stop offset="1" stop-color="#31B4D8"/>
</linearGradient>
<linearGradient id="paint3_linear_129_247" x1="-22" y1="34" x2="227" y2="34.5" gradientUnits="userSpaceOnUse">
<stop stop-color="#98DEA3"/>
<stop offset="1" stop-color="#31B4D8"/>
</linearGradient>
<linearGradient id="paint4_linear_129_247" x1="-22" y1="34" x2="227" y2="34.5" gradientUnits="userSpaceOnUse">
<stop stop-color="#98DEA3"/>
<stop offset="1" stop-color="#31B4D8"/>
</linearGradient>
<linearGradient id="paint5_linear_129_247" x1="-22" y1="34" x2="227" y2="34.5" gradientUnits="userSpaceOnUse">
<stop stop-color="#98DEA3"/>
<stop offset="1" stop-color="#31B4D8"/>
</linearGradient>
<linearGradient id="paint6_linear_129_247" x1="-22" y1="34" x2="227" y2="34.5" gradientUnits="userSpaceOnUse">
<stop stop-color="#98DEA3"/>
<stop offset="1" stop-color="#31B4D8"/>
</linearGradient>
<linearGradient id="paint7_linear_129_247" x1="-22" y1="34" x2="227" y2="34.5" gradientUnits="userSpaceOnUse">
<stop stop-color="#98DEA3"/>
<stop offset="1" stop-color="#31B4D8"/>
</linearGradient>
<linearGradient id="paint8_linear_129_247" x1="-22" y1="34" x2="227" y2="34.5" gradientUnits="userSpaceOnUse">
<stop stop-color="#98DEA3"/>
<stop offset="1" stop-color="#31B4D8"/>
</linearGradient>
<linearGradient id="paint9_linear_129_247" x1="-22" y1="34" x2="227" y2="34.5" gradientUnits="userSpaceOnUse">
<stop stop-color="#98DEA3"/>
<stop offset="1" stop-color="#31B4D8"/>
</linearGradient>
<linearGradient id="paint10_linear_129_247" x1="-22" y1="34" x2="227" y2="34.5" gradientUnits="userSpaceOnUse">
<stop stop-color="#98DEA3"/>
<stop offset="1" stop-color="#31B4D8"/>
</linearGradient>
<linearGradient id="paint11_linear_129_247" x1="-22" y1="34" x2="227" y2="34.5" gradientUnits="userSpaceOnUse">
<stop stop-color="#98DEA3"/>
<stop offset="1" stop-color="#31B4D8"/>
</linearGradient>
<linearGradient id="paint12_linear_129_247" x1="-22" y1="34" x2="227" y2="34.5" gradientUnits="userSpaceOnUse">
<stop stop-color="#98DEA3"/>
<stop offset="1" stop-color="#31B4D8"/>
</linearGradient>
<linearGradient id="paint13_linear_129_247" x1="-22" y1="34" x2="227" y2="34.5" gradientUnits="userSpaceOnUse">
<stop stop-color="#98DEA3"/>
<stop offset="1" stop-color="#31B4D8"/>
</linearGradient>
<linearGradient id="paint14_linear_129_247" x1="-22" y1="34" x2="227" y2="34.5" gradientUnits="userSpaceOnUse">
<stop stop-color="#98DEA3"/>
<stop offset="1" stop-color="#31B4D8"/>
</linearGradient>
<linearGradient id="paint15_linear_129_247" x1="-22" y1="34" x2="227" y2="34.5" gradientUnits="userSpaceOnUse">
<stop stop-color="#98DEA3"/>
<stop offset="1" stop-color="#31B4D8"/>
</linearGradient>
<linearGradient id="paint16_linear_129_247" x1="-22" y1="34" x2="227" y2="34.5" gradientUnits="userSpaceOnUse">
<stop stop-color="#98DEA3"/>
<stop offset="1" stop-color="#31B4D8"/>
</linearGradient>
<linearGradient id="paint17_linear_129_247" x1="-22" y1="34" x2="227" y2="34.5" gradientUnits="userSpaceOnUse">
<stop stop-color="#98DEA3"/>
<stop offset="1" stop-color="#31B4D8"/>
</linearGradient>
</defs>
</svg>
