<svg width="232" height="49" viewBox="0 0 232 49" fill="none" xmlns="http://www.w3.org/2000/svg">
<path fill-rule="evenodd" clip-rule="evenodd" d="M32.9898 20.0566H27.1228C28.7839 18.2668 29.781 15.9102 29.781 13.3711C29.781 12.0077 29.2926 10.7201 28.4527 9.78683C27.6161 8.85719 26.5044 8.35694 25.3688 8.35694C24.2333 8.35694 23.1216 8.85719 22.285 9.78683C21.4451 10.7201 20.9567 12.0077 20.9567 13.3711V14.6645C20.1171 15.5888 20.1171 15.5888 19.3747 16.3311C18.6324 15.5888 18.6324 15.5888 17.7479 14.6645V13.3711C17.7479 12.0077 17.2595 10.7201 16.4196 9.78683C15.583 8.85719 14.4713 8.35694 13.3357 8.35694C12.2002 8.35694 11.0885 8.85719 10.2519 9.78683C9.41198 10.7201 8.9236 12.0077 8.9236 13.3711C8.9236 15.9102 9.92067 18.2668 11.5818 20.0566H5.71484C5.71477 17.5496 5.71477 15.6954 5.71477 13.3711C5.71477 5.87971 11.9266 0 19.3523 0C26.778 0 32.9898 5.87971 32.9898 13.3711V20.0566ZM19.3523 3.34277C21.5078 3.34277 23.4874 3.96349 25.1293 5.01828C23.1621 5.08591 21.3088 5.98406 19.944 7.50057C19.7324 7.73572 19.535 7.9829 19.3523 8.24055C19.1696 7.9829 18.9722 7.73572 18.7606 7.50057C17.3958 5.98406 15.5425 5.08591 13.5753 5.01828C15.2172 3.96349 17.1968 3.34277 19.3523 3.34277Z" fill="#A0B9BA"/>
<path d="M13.3357 11.6997C12.4496 11.6997 11.7313 12.448 11.7313 13.3711C11.7313 14.2942 12.4496 15.0425 13.3357 15.0425H13.3508C14.2369 15.0425 14.9552 14.2942 14.9552 13.3711C14.9552 12.448 14.2369 11.6997 13.3508 11.6997H13.3357Z" fill="#A0B9BA"/>
<path d="M25.3688 11.6997C24.4828 11.6997 23.7644 12.448 23.7644 13.3711C23.7644 14.2942 24.4828 15.0425 25.3688 15.0425H25.3839C26.27 15.0425 26.9883 14.2942 26.9883 13.3711C26.9883 12.448 26.27 11.6997 25.3839 11.6997H25.3688Z" fill="#A0B9BA"/>
<path d="M27.1452 7.8794H34.3089C34.6827 7.8794 35.0411 7.73718 35.3055 7.48395C35.5698 7.23072 35.7173 6.7224 35.7173 6.36428C35.7173 6.00616 35.5694 5.66284 35.305 5.40961C35.0406 5.15638 34.6823 5.01416 34.3084 5.01416H27.2614L27.1452 7.8794Z" fill="#A0B9BA"/>
<path d="M11.4295 7.8794H4.26584C3.89197 7.8794 3.53361 7.73718 3.26924 7.48395C3.00488 7.23072 2.85739 6.7224 2.85739 6.36428C2.85739 6.00616 3.00535 5.66284 3.26972 5.40961C3.53408 5.15638 3.89245 5.01416 4.26631 5.01416H11.3133L11.4295 7.8794Z" fill="#A0B9BA"/>
<path d="M36.1706 34.062C36.4281 33.7031 36.5656 33.2811 36.5656 32.8495C36.5656 32.2706 36.3187 31.7155 35.8791 31.3062C35.4395 30.8969 34.8433 30.667 34.2217 30.667C33.7581 30.667 33.3049 30.795 32.9194 31.0348C32.534 31.2746 32.2335 31.6155 32.0561 32.0143C31.8787 32.4131 31.8323 32.8519 31.9228 33.2753C32.0132 33.6986 32.2364 34.0875 32.5642 34.3927C32.892 34.698 33.3097 34.9058 33.7644 34.99C34.2191 35.0743 34.6903 35.031 35.1186 34.8658C35.547 34.7007 35.913 34.4209 36.1706 34.062Z" fill="#A0B9BA"/>
<path fill-rule="evenodd" clip-rule="evenodd" d="M7.14347 11.4609H5.15669C3.78905 11.4609 2.47743 11.9668 1.51036 12.8673C0.543292 13.7677 0 14.989 0 16.2624V44.1985C0 45.4719 0.543292 46.6932 1.51036 47.5937C2.47743 48.4941 3.78905 49 5.15669 49H42.6599C43.5302 49 44.3649 48.6781 44.9803 48.1051C45.5957 47.532 45.9414 46.7549 45.9414 45.9445V21.5005C45.9414 20.6901 45.5957 19.9129 44.9803 19.3399C44.3649 18.7669 43.5302 18.445 42.6599 18.445H5.15669C4.53503 18.445 3.93884 18.215 3.49927 17.8057C3.05969 17.3964 2.81274 16.8413 2.81274 16.2624C2.81274 15.6836 3.05969 15.1285 3.49927 14.7192C3.93884 14.3099 4.53503 14.0799 5.15669 14.0799H7.14347V11.4609ZM42.9914 46.2531C43.0793 46.1713 43.1287 46.0603 43.1287 45.9445V21.5005C43.1287 21.3847 43.0793 21.2737 42.9914 21.1918C42.9035 21.1099 42.7842 21.064 42.6599 21.064H5.15669C4.65618 21.0645 4.34219 21.0644 3.89464 21.0642C3.44708 21.064 2.85739 20.773 2.81274 20.773V44.1985C2.81274 44.7773 3.05969 45.3325 3.49927 45.7418C3.93884 46.1511 4.53503 46.381 5.15669 46.381H42.6599C42.7842 46.381 42.9035 46.335 42.9914 46.2531Z" fill="#A0B9BA"/>
<path d="M35.0881 14.0799H31.4312V11.4609H35.0881C35.9584 11.4609 36.7931 11.7829 37.4085 12.3559C38.0239 12.9289 38.3696 13.7061 38.3696 14.5164V18.624H35.5569V14.5164C35.5569 14.4007 35.5075 14.2897 35.4196 14.2078C35.3317 14.1259 35.2124 14.0799 35.0881 14.0799Z" fill="#A0B9BA"/>
<path d="M220.736 35.7295V40.715H231.68V44.4112H220.479C218.25 44.4112 216.45 42.7207 216.45 40.6577V26.9046C216.45 24.8416 218.25 23.1511 220.479 23.1511H231.68V26.8473H220.736V32.0334H230.823V35.7295H220.736Z" fill="#A0B9BA"/>
<path d="M197.337 29.2254C197.337 25.8731 200.88 23.1511 205.252 23.1511H208.109C210.252 23.1511 213.309 24.0393 214.738 25.472L211.023 28.3372C210.366 27.4203 209.166 26.8473 208.109 26.8473H205.252C203.251 26.8473 201.623 27.9074 201.623 29.2254C201.623 32.4918 215.024 31.1738 215.024 38.3369C215.024 41.6892 211.338 44.4112 206.823 44.4112H203.966C201.737 44.4112 198.537 43.5229 197.051 42.0903L200.737 39.2251C201.451 40.142 202.794 40.715 203.966 40.715H206.823C208.995 40.715 210.738 39.6549 210.738 38.3369C210.738 34.6694 197.337 36.3312 197.337 29.2254Z" fill="#A0B9BA"/>
<path d="M191.37 23.1511H195.657V44.4112H191.37V23.1511Z" fill="#A0B9BA"/>
<path d="M169.41 40.0274L174.153 26.2456H178.668L183.411 40.0274L185.04 23.1511H189.612L187.669 40.8583C187.383 43.3224 185.526 44.5544 183.726 44.5544C182.325 44.5544 180.954 43.8095 180.382 42.2909L176.411 30.658L172.439 42.2909C171.867 43.8095 170.496 44.5544 169.096 44.5544C167.296 44.5544 165.438 43.3224 165.153 40.8583L163.21 23.1511H167.781L169.41 40.0274Z" fill="#A0B9BA"/>
<path d="M156.524 44.4112H152.238V26.9046C152.238 24.8416 154.038 23.1511 156.267 23.1511H161.901V26.9046L156.524 26.8473V44.4112ZM156.524 23.1511L152.694 26.8473H146.523L147.797 23.1511H156.524Z" fill="#A0B9BA"/>
<path d="M133.234 35.7295V40.715H144.178V44.4112H132.977C130.748 44.4112 128.948 42.7207 128.948 40.6577V26.9046C128.948 24.8416 130.748 23.1511 132.977 23.1511H145.571L144.178 26.8473H133.234V32.0334H143.321V35.7295H133.234Z" fill="#A0B9BA"/>
<path d="M117.303 23.1511H120.16C122.389 23.1511 125.589 24.0393 127.075 25.472L123.36 28.3372C122.646 27.4203 121.332 26.8473 120.16 26.8473H117.303C115.16 26.8473 113.445 28.8243 113.445 31.2311V36.3312C113.445 38.738 115.188 40.715 117.36 40.715H122.875V33.8098H127.161V40.6577C127.161 42.7207 125.361 44.4112 123.132 44.4112H117.36C112.845 44.4112 109.159 40.801 109.159 36.3312V31.2311C109.159 26.7613 112.817 23.1511 117.303 23.1511Z" fill="#A0B9BA"/>
<path d="M104.157 36.3312V31.2311C104.157 28.8243 102.414 26.8473 100.242 26.8473H94.7274V40.715H100.242C102.414 40.715 104.157 38.738 104.157 36.3312ZM90.4413 26.9046C90.4413 24.8416 92.2415 23.1511 94.4703 23.1511H100.242C104.757 23.1511 108.443 26.7613 108.443 31.2311V36.3312C108.443 40.801 104.757 44.4112 100.242 44.4112H90.4413V26.9046Z" fill="#A0B9BA"/>
<path d="M69.6629 23.1511H73.949V36.3312C73.949 38.738 75.692 40.715 77.8636 40.715H80.1495C82.3211 40.715 84.0641 38.738 84.0641 36.3312V23.1511H88.3502V36.3312C88.3502 40.801 84.6642 44.4112 80.1495 44.4112H77.8636C73.3489 44.4112 69.6629 40.801 69.6629 36.3312V23.1511Z" fill="#A0B9BA"/>
<path d="M65.1082 33.466C67.2798 34.6121 68.3656 36.5031 68.3656 38.4228C68.3656 41.4313 65.6797 44.4112 60.3078 44.4112H50.507V26.9046C50.507 24.8416 52.3071 23.1511 54.5359 23.1511H60.3078C64.9082 23.1511 67.2227 26.1023 67.2227 29.0535C67.2227 30.6867 66.5083 32.3199 65.1082 33.466ZM56.4912 31.8328H60.3078C62.1365 31.8328 63.0509 30.5721 63.0509 29.34C63.0509 28.0793 62.1365 26.8473 60.3078 26.8473H54.793V40.715H60.3078C62.908 40.715 64.1938 39.4257 64.1938 38.1363C64.1938 36.8469 62.908 35.5289 60.3078 35.5289H56.4912V31.8328Z" fill="#A0B9BA"/>
</svg>
