<svg width="46" height="49" viewBox="0 0 46 49" fill="none" xmlns="http://www.w3.org/2000/svg">
<path fill-rule="evenodd" clip-rule="evenodd" d="M32.9898 20.0566H27.1228C28.7839 18.2668 29.781 15.9102 29.781 13.3711C29.781 12.0077 29.2926 10.7201 28.4527 9.78683C27.6161 8.85719 26.5044 8.35694 25.3688 8.35694C24.2333 8.35694 23.1216 8.85719 22.285 9.78683C21.4451 10.7201 20.9567 12.0077 20.9567 13.3711V14.6645C20.1171 15.5888 20.1171 15.5888 19.3747 16.3311C18.6324 15.5888 18.6324 15.5888 17.7479 14.6645V13.3711C17.7479 12.0077 17.2595 10.7201 16.4196 9.78683C15.583 8.85719 14.4713 8.35694 13.3357 8.35694C12.2002 8.35694 11.0885 8.85719 10.2519 9.78683C9.41198 10.7201 8.9236 12.0077 8.9236 13.3711C8.9236 15.9102 9.92067 18.2668 11.5818 20.0566H5.71484C5.71477 17.5496 5.71477 15.6954 5.71477 13.3711C5.71477 5.87971 11.9266 0 19.3523 0C26.778 0 32.9898 5.87971 32.9898 13.3711V20.0566ZM19.3523 3.34277C21.5078 3.34277 23.4874 3.96349 25.1293 5.01828C23.1621 5.08591 21.3088 5.98406 19.944 7.50057C19.7324 7.73572 19.535 7.9829 19.3523 8.24055C19.1696 7.9829 18.9722 7.73572 18.7606 7.50057C17.3958 5.98406 15.5425 5.08591 13.5753 5.01828C15.2172 3.96349 17.1968 3.34277 19.3523 3.34277Z" fill="#A0B9BA"/>
<path d="M13.3357 11.6997C12.4496 11.6997 11.7313 12.448 11.7313 13.3711C11.7313 14.2942 12.4496 15.0425 13.3357 15.0425H13.3508C14.2369 15.0425 14.9552 14.2942 14.9552 13.3711C14.9552 12.448 14.2369 11.6997 13.3508 11.6997H13.3357Z" fill="#A0B9BA"/>
<path d="M25.3688 11.6997C24.4828 11.6997 23.7644 12.448 23.7644 13.3711C23.7644 14.2942 24.4828 15.0425 25.3688 15.0425H25.3839C26.27 15.0425 26.9883 14.2942 26.9883 13.3711C26.9883 12.448 26.27 11.6997 25.3839 11.6997H25.3688Z" fill="#A0B9BA"/>
<path d="M27.1452 7.8794H34.3089C34.6827 7.8794 35.0411 7.73718 35.3055 7.48395C35.5698 7.23072 35.7173 6.7224 35.7173 6.36428C35.7173 6.00616 35.5694 5.66284 35.305 5.40961C35.0406 5.15638 34.6823 5.01416 34.3084 5.01416H27.2614L27.1452 7.8794Z" fill="#A0B9BA"/>
<path d="M11.4295 7.8794H4.26584C3.89197 7.8794 3.53361 7.73718 3.26924 7.48395C3.00488 7.23072 2.85739 6.7224 2.85739 6.36428C2.85739 6.00616 3.00535 5.66284 3.26972 5.40961C3.53408 5.15638 3.89245 5.01416 4.26631 5.01416H11.3133L11.4295 7.8794Z" fill="#A0B9BA"/>
<path d="M36.1706 34.062C36.4281 33.7031 36.5656 33.2811 36.5656 32.8495C36.5656 32.2706 36.3187 31.7155 35.8791 31.3062C35.4395 30.8969 34.8433 30.667 34.2217 30.667C33.7581 30.667 33.3049 30.795 32.9194 31.0348C32.534 31.2746 32.2335 31.6155 32.0561 32.0143C31.8787 32.4131 31.8323 32.8519 31.9228 33.2753C32.0132 33.6986 32.2364 34.0875 32.5642 34.3927C32.892 34.698 33.3097 34.9058 33.7644 34.99C34.2191 35.0743 34.6903 35.031 35.1186 34.8658C35.547 34.7007 35.913 34.4209 36.1706 34.062Z" fill="#A0B9BA"/>
<path fill-rule="evenodd" clip-rule="evenodd" d="M7.14347 11.4609H5.15669C3.78905 11.4609 2.47743 11.9668 1.51036 12.8673C0.543292 13.7677 0 14.989 0 16.2624V44.1985C0 45.4719 0.543292 46.6932 1.51036 47.5937C2.47743 48.4941 3.78905 49 5.15669 49H42.6599C43.5302 49 44.3649 48.6781 44.9803 48.1051C45.5957 47.532 45.9414 46.7549 45.9414 45.9445V21.5005C45.9414 20.6901 45.5957 19.9129 44.9803 19.3399C44.3649 18.7669 43.5302 18.445 42.6599 18.445H5.15669C4.53503 18.445 3.93884 18.215 3.49927 17.8057C3.05969 17.3964 2.81274 16.8413 2.81274 16.2624C2.81274 15.6836 3.05969 15.1285 3.49927 14.7192C3.93884 14.3099 4.53503 14.0799 5.15669 14.0799H7.14347V11.4609ZM42.9914 46.2531C43.0793 46.1713 43.1287 46.0603 43.1287 45.9445V21.5005C43.1287 21.3847 43.0793 21.2737 42.9914 21.1918C42.9035 21.1099 42.7842 21.064 42.6599 21.064H5.15669C4.65618 21.0645 4.34219 21.0644 3.89464 21.0642C3.44708 21.064 2.85739 20.773 2.81274 20.773V44.1985C2.81274 44.7773 3.05969 45.3325 3.49927 45.7418C3.93884 46.1511 4.53503 46.381 5.15669 46.381H42.6599C42.7842 46.381 42.9035 46.335 42.9914 46.2531Z" fill="#A0B9BA"/>
<path d="M35.0881 14.0799H31.4312V11.4609H35.0881C35.9584 11.4609 36.7931 11.7829 37.4085 12.3559C38.0239 12.9289 38.3696 13.7061 38.3696 14.5164V18.624H35.5569V14.5164C35.5569 14.4007 35.5075 14.2897 35.4196 14.2078C35.3317 14.1259 35.2124 14.0799 35.0881 14.0799Z" fill="#A0B9BA"/>
</svg>
