<svg width="50" height="50" viewBox="0 0 50 50" fill="none" xmlns="http://www.w3.org/2000/svg">
<path d="M24 22C29.5228 22 34 17.5228 34 12C34 6.47715 29.5228 2 24 2C18.4772 2 14 6.47715 14 12C14 17.5228 18.4772 22 24 22Z" stroke="#A0B9BA" stroke-opacity="0.91" stroke-width="3.3"/>
<path d="M43.9939 38.6667C44 38.2835 44 37.8943 44 37.5C44 31.701 35.2696 27 24.5 27C13.7304 27 5 31.701 5 37.5C5 43.299 5 48 24.5 48C29.9381 48 33.8595 47.6344 36.6875 46.9813" stroke="#A0B9BA" stroke-opacity="0.91" stroke-width="3.3" stroke-linecap="round"/>
</svg>
