<svg width="41" height="40" viewBox="0 0 41 40" fill="none" xmlns="http://www.w3.org/2000/svg">
<path d="M28.5417 30.3697L38.75 19.9531M38.75 19.9531L28.5417 9.53645M38.75 19.9531H14.25M20.375 30.3697C20.375 30.9856 20.375 31.2935 20.3525 31.5602C20.1194 34.3322 18.1188 36.6133 15.4444 37.1558C15.1872 37.2079 14.887 37.242 14.2875 37.3099L12.2021 37.5464C9.06923 37.9016 7.50272 38.0791 6.25822 37.6729C4.5989 37.131 3.24423 35.8937 2.53324 34.2708C2 33.0535 2 31.4454 2 28.2287V11.6775C2 8.46094 2 6.85269 2.53324 5.63544C3.24423 4.01244 4.5989 2.77519 6.25822 2.23338C7.50272 1.82701 9.06919 2.00461 12.2021 2.3598L14.2875 2.59624C14.8872 2.66426 15.1871 2.69826 15.4444 2.75044C18.1188 3.29301 20.1194 5.57403 20.3525 8.34605C20.375 8.61276 20.375 8.92065 20.375 9.53645" stroke="#A0B9BA" stroke-opacity="0.91" stroke-width="4" stroke-linecap="round" stroke-linejoin="round"/>
</svg>
