<svg width="60" height="60" viewBox="0 0 60 60" fill="none" xmlns="http://www.w3.org/2000/svg">
<path d="M30 25C35.5228 25 40 20.5228 40 15C40 9.47715 35.5228 5 30 5C24.4772 5 20 9.47715 20 15C20 20.5228 24.4772 25 30 25Z" stroke="#A0B9BA" stroke-opacity="0.91" stroke-width="3.3"/>
<path d="M49.9937 45C50 44.5895 50 44.1725 50 43.75C50 37.5367 41.0458 32.5 30 32.5C18.9543 32.5 10 37.5367 10 43.75C10 49.9633 10 55 30 55C35.5775 55 39.5995 54.6083 42.5 53.9085" stroke="#A0B9BA" stroke-opacity="0.91" stroke-width="3.3" stroke-linecap="round"/>
</svg>
