<svg width="40" height="47" viewBox="0 0 40 47" fill="none" xmlns="http://www.w3.org/2000/svg">
<path d="M2.77754 6.88803C1.84341 6.16539 0.496856 6.57871 0.309471 7.74477C0.0783396 9.18305 0 10.803 0 12.5901V37.0745L1.21658e-05 37.0806C0.00590381 38.6626 0.223385 40.0613 0.687104 41.1969C1.15309 42.3381 1.91838 43.3211 3.05697 43.8132C4.20712 44.3104 5.43805 44.1773 6.56146 43.6915C7.66903 43.2126 8.76112 42.3605 9.81063 41.2335L9.8134 41.2305C10.395 40.6028 11.0567 40.3781 11.6361 40.4099C12.2161 40.4416 12.8507 40.7378 13.3617 41.4228L15.5448 44.3574L15.5504 44.3647C16.6862 45.8737 18.2848 46.7562 20.0109 46.7562C21.7369 46.7562 23.3356 45.8737 24.4714 44.3647L24.4769 44.3574L26.6595 41.4234C27.1706 40.7381 27.8054 40.4416 28.3855 40.4099C28.9649 40.3781 29.6266 40.6028 30.2083 41.2305L30.2112 41.2337C31.2654 42.3653 32.3597 43.2199 33.4674 43.7003C34.5908 44.1875 35.8224 44.3223 36.9724 43.8231C38.1106 43.329 38.871 42.3428 39.331 41.203C39.7889 40.0684 40 38.6725 40 37.0962V12.5901C40 8.23345 39.5345 4.87057 37.5248 2.71017C35.4791 0.511081 32.2627 0 28.173 0H11.827C9.3538 0 7.19998 0.186909 5.43131 0.821018C4.34514 1.21043 4.30759 2.58496 5.22024 3.29099L5.36168 3.40041C5.8631 3.7883 6.5336 3.8605 7.14714 3.70099C8.25961 3.41175 9.76252 3.26168 11.827 3.26168H28.173C32.2563 3.26168 34.1426 3.8487 35.1564 4.93848C36.2061 6.06694 36.7568 8.18369 36.7568 12.5901V37.0962C36.7568 38.412 36.5761 39.3563 36.3259 39.9763C36.0778 40.591 35.8138 40.7735 35.6872 40.8285C35.5723 40.8783 35.2985 40.9424 34.7516 40.7053C34.1894 40.4614 33.4491 39.9384 32.5796 39.0053C31.3884 37.7206 29.8129 37.0652 28.2092 37.153C26.6055 37.2408 25.1105 38.0643 24.0649 39.4664L21.8855 42.3961L21.883 42.3994C21.2681 43.2146 20.5759 43.4946 20.0109 43.4946C19.4458 43.4946 18.7536 43.2146 18.1387 42.3994L18.1362 42.3961L15.9568 39.4664C14.9111 38.0643 13.4162 37.2408 11.8125 37.153C10.2086 37.0652 8.63296 37.7207 7.44174 39.0057C6.57844 39.9324 5.84139 40.4525 5.28039 40.6951C4.73489 40.9309 4.45772 40.8685 4.33761 40.8166C4.20593 40.7597 3.9388 40.574 3.68721 39.9579C3.43356 39.3367 3.24843 38.3907 3.24324 37.0713V12.5901C3.24324 10.9926 3.31562 9.69604 3.45792 8.63841C3.5472 7.97479 3.30716 7.29775 2.77754 6.88803Z" fill="#A0B9BA" fill-opacity="0.91"/>
<path d="M14.0793 19.0266H25.9712" stroke="#A0B9BA" stroke-opacity="0.91" stroke-width="3.26168" stroke-linecap="round" stroke-linejoin="round"/>
</svg>
