<svg width="111" height="283" viewBox="0 0 111 283" fill="none" xmlns="http://www.w3.org/2000/svg">
<mask id="path-1-inside-1_678_3863" fill="white">
<path fill-rule="evenodd" clip-rule="evenodd" d="M111 241.442L84.6006 189.753L111 138.064V135.832L84.592 187.538L84.0306 188.637L83.4691 187.538L36.5179 95.609L83.6472 3.33139L84.2086 2.23212L84.7701 3.33139L111 54.6886V52.4565L84.7701 1.09928L84.2086 0L83.6472 1.09928L36.5093 93.3936L35.9479 94.4929L35.3864 93.3936L1 26.0663L0 24.1083V26.3069V26.3404L35.3779 95.609L0 164.878V164.911V167.11L1 165.152L35.3864 97.8243L35.9479 96.725L36.5093 97.8243L83.4606 189.753L59.6484 236.377L36.3469 282L36.3312 282.031L35.883 282.908L35.8362 283H36.8262H36.9591H36.9762L83.4691 191.969L84.0306 190.869L84.592 191.969L111 243.674V241.442ZM35.7034 283L35.6565 282.908L35.2083 282.031L35.1926 282L1 215.052L0 213.094V215.293V215.326L34.5633 283H34.5805H34.7133H35.7034Z"/>
</mask>
<path d="M111 241.442H112V241.202L111.891 240.987L111 241.442ZM84.6006 189.753L83.71 189.298L83.4777 189.753L83.71 190.208L84.6006 189.753ZM111 138.064L111.891 138.519L112 138.305V138.064H111ZM111 135.832H112L110.109 135.377L111 135.832ZM84.592 187.538L85.4826 187.993L85.4826 187.993L84.592 187.538ZM84.0306 188.637L83.14 189.092L84.0306 190.836L84.9211 189.092L84.0306 188.637ZM83.4691 187.538L82.5786 187.993L82.5786 187.993L83.4691 187.538ZM36.5179 95.609L35.6273 95.1541L35.395 95.609L35.6273 96.0638L36.5179 95.609ZM83.6472 3.33139L82.7566 2.87655L82.7566 2.87655L83.6472 3.33139ZM84.2086 2.23212L85.0992 1.77727L84.2086 0.0335705L83.3181 1.77727L84.2086 2.23212ZM84.7701 3.33139L85.6607 2.87655L85.6607 2.87655L84.7701 3.33139ZM111 54.6886L110.109 55.1435L112 54.6886H111ZM111 52.4565H112V52.2159L111.891 52.0017L111 52.4565ZM84.7701 1.09928L85.6607 0.644431L85.6607 0.64443L84.7701 1.09928ZM84.2086 0L85.0992 -0.454846L84.2086 -2.19855L83.3181 -0.454846L84.2086 0ZM83.6472 1.09928L82.7566 0.64443L82.7566 0.644431L83.6472 1.09928ZM36.5093 93.3936L35.6187 92.9388L35.6187 92.9388L36.5093 93.3936ZM35.9479 94.4929L35.0573 94.9478L35.9479 96.6915L36.8384 94.9478L35.9479 94.4929ZM35.3864 93.3936L36.277 92.9388L36.277 92.9388L35.3864 93.3936ZM1 26.0663L0.109429 26.5211L0.10943 26.5211L1 26.0663ZM0 24.1083L0.890571 23.6535L-1 24.1083H0ZM0 26.3404H-1V26.581L-0.890571 26.7953L0 26.3404ZM35.3779 95.609L36.2684 96.0638L36.5007 95.609L36.2684 95.1541L35.3779 95.609ZM0 164.878L-0.89057 164.423L-1 164.637V164.878H0ZM0 167.11H-1L0.89057 167.564L0 167.11ZM1 165.152L1.89057 165.607L1.89057 165.607L1 165.152ZM35.3864 97.8243L36.277 98.2792L36.277 98.2792L35.3864 97.8243ZM35.9479 96.725L36.8384 96.2702L35.9479 94.5265L35.0573 96.2702L35.9479 96.725ZM36.5093 97.8243L35.6187 98.2792L35.6187 98.2792L36.5093 97.8243ZM83.4606 189.753L84.3511 190.208L84.5834 189.753L84.3511 189.298L83.4606 189.753ZM59.6484 236.377L60.5389 236.831L59.6484 236.377ZM36.3469 282L35.4563 281.545L35.4563 281.545L36.3469 282ZM36.3312 282.031L37.2218 282.486L37.2219 282.485L36.3312 282.031ZM35.883 282.908L34.9925 282.453L34.9925 282.453L35.883 282.908ZM35.8362 283L34.9456 282.545L34.2026 284H35.8362V283ZM36.9762 283V284H37.5884L37.8668 283.455L36.9762 283ZM83.4691 191.969L82.5786 191.514L82.5786 191.514L83.4691 191.969ZM84.0306 190.869L84.9211 190.414L84.0306 188.671L83.14 190.414L84.0306 190.869ZM84.592 191.969L85.4826 191.514L85.4826 191.514L84.592 191.969ZM111 243.674L110.109 244.129L112 243.674H111ZM35.6565 282.908L36.5471 282.453L36.5471 282.453L35.6565 282.908ZM35.7034 283V284H37.337L36.5939 282.545L35.7034 283ZM35.2083 282.031L34.3177 282.485L34.3178 282.486L35.2083 282.031ZM35.1926 282L36.0833 281.545L36.0832 281.545L35.1926 282ZM1 215.052L1.89057 214.597L1.89057 214.597L1 215.052ZM0 213.094L0.89057 212.639L-1 213.094H0ZM0 215.326H-1V215.567L-0.890571 215.781L0 215.326ZM34.5633 283L33.6728 283.455L33.9512 284H34.5633V283ZM111.891 240.987L85.4912 189.298L83.71 190.208L110.109 241.897L111.891 240.987ZM85.4912 190.208L111.891 138.519L110.109 137.609L83.71 189.298L85.4912 190.208ZM110 135.832V138.064H112V135.832H110ZM85.4826 187.993L111.891 136.287L110.109 135.377L83.7014 187.083L85.4826 187.993ZM84.9211 189.092L85.4826 187.993L83.7014 187.083L83.14 188.182L84.9211 189.092ZM82.5786 187.993L83.14 189.092L84.9211 188.182L84.3597 187.083L82.5786 187.993ZM35.6273 96.0638L82.5786 187.993L84.3597 187.083L37.4084 95.1541L35.6273 96.0638ZM82.7566 2.87655L35.6273 95.1541L37.4084 96.0638L84.5378 3.78624L82.7566 2.87655ZM83.3181 1.77727L82.7566 2.87655L84.5378 3.78624L85.0992 2.68696L83.3181 1.77727ZM85.6607 2.87655L85.0992 1.77727L83.3181 2.68696L83.8795 3.78624L85.6607 2.87655ZM111.891 54.2338L85.6607 2.87655L83.8795 3.78624L110.109 55.1435L111.891 54.2338ZM110 52.4565V54.6886H112V52.4565H110ZM111.891 52.0017L85.6607 0.644431L83.8795 1.55412L110.109 52.9114L111.891 52.0017ZM85.6607 0.64443L85.0992 -0.454846L83.3181 0.454846L83.8795 1.55412L85.6607 0.64443ZM83.3181 -0.454846L82.7566 0.64443L84.5378 1.55412L85.0992 0.454846L83.3181 -0.454846ZM82.7566 0.644431L35.6187 92.9388L37.3999 93.8485L84.5378 1.55412L82.7566 0.644431ZM35.6187 92.9388L35.0573 94.0381L36.8384 94.9478L37.3999 93.8485L35.6187 92.9388ZM36.8384 94.0381L36.277 92.9388L34.4959 93.8485L35.0573 94.9478L36.8384 94.0381ZM36.277 92.9388L1.89057 25.6114L0.10943 26.5211L34.4959 93.8485L36.277 92.9388ZM1.89057 25.6114L0.890571 23.6535L-0.890571 24.5632L0.109429 26.5211L1.89057 25.6114ZM1 26.3069V24.1083H-1V26.3069H1ZM1 26.3404V26.3069H-1V26.3404H1ZM-0.890571 26.7953L34.4873 96.0638L36.2684 95.1541L0.890571 25.8856L-0.890571 26.7953ZM34.4873 95.1541L-0.89057 164.423L0.89057 165.332L36.2684 96.0638L34.4873 95.1541ZM1 164.911V164.878H-1V164.911H1ZM1 167.11V164.911H-1V167.11H1ZM0.89057 167.564L1.89057 165.607L0.10943 164.697L-0.89057 166.655L0.89057 167.564ZM1.89057 165.607L36.277 98.2792L34.4959 97.3695L0.109429 164.697L1.89057 165.607ZM36.277 98.2792L36.8384 97.1799L35.0573 96.2702L34.4959 97.3695L36.277 98.2792ZM35.0573 97.1799L35.6187 98.2792L37.3999 97.3695L36.8384 96.2702L35.0573 97.1799ZM35.6187 98.2792L82.57 190.208L84.3511 189.298L37.3999 97.3695L35.6187 98.2792ZM82.57 189.298L58.7578 235.922L60.5389 236.831L84.3511 190.208L82.57 189.298ZM58.7578 235.922L35.4563 281.545L37.2375 282.455L60.5389 236.831L58.7578 235.922ZM35.4563 281.545L35.4406 281.576L37.2219 282.485L37.2376 282.455L35.4563 281.545ZM35.4406 281.576L34.9925 282.453L36.7736 283.363L37.2218 282.486L35.4406 281.576ZM34.9925 282.453L34.9456 282.545L36.7268 283.455L36.7736 283.363L34.9925 282.453ZM36.8262 282H35.8362V284H36.8262V282ZM36.9591 282H36.8262V284H36.9591V282ZM36.9762 282H36.9591V284H36.9762V282ZM37.8668 283.455L84.3597 192.423L82.5786 191.514L36.0856 282.545L37.8668 283.455ZM84.3597 192.423L84.9211 191.324L83.14 190.414L82.5786 191.514L84.3597 192.423ZM83.14 191.324L83.7014 192.423L85.4826 191.514L84.9211 190.414L83.14 191.324ZM83.7014 192.423L110.109 244.129L111.891 243.22L85.4826 191.514L83.7014 192.423ZM110 241.442V243.674H112V241.442H110ZM34.7659 283.363L34.8128 283.455L36.5939 282.545L36.5471 282.453L34.7659 283.363ZM34.3178 282.486L34.7659 283.363L36.5471 282.453L36.0989 281.576L34.3178 282.486ZM34.302 282.455L34.3177 282.485L36.099 281.576L36.0833 281.545L34.302 282.455ZM0.109429 215.507L34.3021 282.455L36.0832 281.545L1.89057 214.597L0.109429 215.507ZM-0.89057 213.549L0.10943 215.507L1.89057 214.597L0.89057 212.639L-0.89057 213.549ZM1 215.293V213.094H-1V215.293H1ZM1 215.326V215.293H-1V215.326H1ZM35.4539 282.545L0.890571 214.871L-0.890571 215.781L33.6728 283.455L35.4539 282.545ZM34.5805 282H34.5633V284H34.5805V282ZM34.7133 282H34.5805V284H34.7133V282ZM35.7034 282H34.7133V284H35.7034V282Z" fill="url(#paint0_linear_678_3863)" fill-opacity="0.53" mask="url(#path-1-inside-1_678_3863)"/>
<defs>
<linearGradient id="paint0_linear_678_3863" x1="81.551" y1="16.5" x2="239.129" y2="188.857" gradientUnits="userSpaceOnUse">
<stop stop-color="#E3EDDA" stop-opacity="0"/>
<stop offset="0.416276" stop-color="#9CB785" stop-opacity="0.17"/>
<stop offset="1" stop-color="#77CF27" stop-opacity="0.63"/>
</linearGradient>
</defs>
</svg>
