<svg width="46" height="46" viewBox="0 0 46 46" fill="none" xmlns="http://www.w3.org/2000/svg">
<path d="M43.8333 23.4248V26.5937C43.8333 34.7204 43.8333 38.7839 41.3925 41.3085C38.9518 43.8333 35.0233 43.8333 27.1666 43.8333H18.8333C10.9765 43.8333 7.04819 43.8333 4.6074 41.3085C2.16663 38.7839 2.16663 34.7204 2.16663 26.5937V23.4248C2.16663 18.6572 2.16663 16.2735 3.24829 14.2973C4.32996 12.3212 6.3061 11.0948 10.2584 8.6419L14.425 6.05594C18.6029 3.46306 20.6918 2.16663 23 2.16663C25.3081 2.16663 27.397 3.46306 31.575 6.05594L35.7416 8.64188C39.6939 11.0948 41.67 12.3212 42.7516 14.2973M29.25 35.5H16.75" stroke="#A0B9BA" stroke-opacity="0.91" stroke-width="3" stroke-linecap="round"/>
</svg>
