<svg width="46" height="46" viewBox="0 0 46 46" fill="none" xmlns="http://www.w3.org/2000/svg">
<path d="M11.4257 5.43404C12.5233 4.70065 13.6827 4.07682 14.8871 3.56759C17.8098 2.3319 19.2711 1.71404 21.1357 2.95C23.0001 4.18598 23.0001 6.20942 23.0001 10.2563V14.423C23.0001 18.3514 23.0001 20.3155 24.2205 21.5359C25.4409 22.7563 27.4051 22.7563 31.3334 22.7563H35.5001C39.547 22.7563 41.5705 22.7563 42.8063 24.6207C44.0424 26.4853 43.4245 27.9465 42.1888 30.8693C41.6797 32.0736 41.0557 33.233 40.3224 34.3307C38.0332 37.7567 34.7795 40.427 30.9726 42.0038C27.1659 43.5807 22.977 43.9932 18.9357 43.1892C14.8944 42.3855 11.1823 40.4013 8.26871 37.4878C5.3551 34.574 3.37092 30.862 2.56706 26.8207C1.76321 22.7795 2.17577 18.5905 3.7526 14.7838C4.10196 13.9403 4.50498 13.1241 4.95802 12.3394M28.2082 2.5792C35.5291 4.46347 41.2926 10.227 43.177 17.5479" stroke="#A0B9BA" stroke-opacity="0.91" stroke-width="3.125" stroke-linecap="round"/>
</svg>
