<svg width="50" height="50" viewBox="0 0 50 50" fill="none" xmlns="http://www.w3.org/2000/svg">
<path d="M25 22C30.5228 22 35 17.5228 35 12C35 6.47715 30.5228 2 25 2C19.4772 2 15 6.47715 15 12C15 17.5228 19.4772 22 25 22Z" stroke="#A0B9BA" stroke-opacity="0.91" stroke-width="3.3"/>
<path d="M44.9939 38.6667C45 38.2835 45 37.8943 45 37.5C45 31.701 36.2696 27 25.5 27C14.7304 27 6 31.701 6 37.5C6 43.299 6 48 25.5 48C30.9381 48 34.8595 47.6344 37.6875 46.9813" stroke="#A0B9BA" stroke-opacity="0.91" stroke-width="3.3" stroke-linecap="round"/>
</svg>
