<svg width="294" height="283" viewBox="0 0 294 283" fill="none" xmlns="http://www.w3.org/2000/svg">
<path d="M277.341 189.213L293.5 157.574V157.608L277.02 189.874L276.904 190.102L277.02 190.329L293.5 222.596V222.629L277.341 190.99L276.896 190.119L276.45 190.99L229.713 282.5H229.696L276.771 190.329L276.887 190.102L276.771 189.874L229.08 96.4976L228.635 95.6258L228.19 96.4976L180.677 189.526L180.561 189.753L180.677 189.981L227.93 282.5H227.913L180.997 190.642L180.552 189.77L180.107 190.642L133.192 282.5H133.175L180.427 189.981L180.544 189.753L180.427 189.526L132.737 96.1489L132.291 95.2771L131.846 96.1489L84.1553 189.526L84.0391 189.753L84.1553 189.981L131.408 282.5H131.391L84.4759 190.642L84.0306 189.77L83.5853 190.642L36.6701 282.5H36.653L83.9059 189.981L84.022 189.753L83.9059 189.526L36.3931 96.4976L35.9479 95.6258L35.5026 96.4976L0.5 165.031V164.998L35.8231 95.8364L35.9393 95.609L35.8231 95.3816L0.5 26.2201V26.1866L35.5026 94.7203L35.9479 95.5922L36.3931 94.7203L84.2086 1.09927L131.846 94.3717L132.291 95.2435L132.737 94.3717L180.374 1.09927L228.19 94.7203L228.635 95.5922L229.08 94.7203L276.896 1.09927L293.5 33.6099V33.6435L277.341 2.00469L276.896 1.13284L276.45 2.00469L228.76 95.3815L228.643 95.609L228.76 95.8364L276.45 189.213L276.896 190.085L277.341 189.213ZM0.5 215.172L34.8866 282.5H34.8694L0.5 215.206V215.172ZM84.6539 2.00469L84.2086 1.13284L83.7634 2.00469L36.0726 95.3815L35.9564 95.609L36.0726 95.8364L83.5853 188.865L84.0306 189.736L84.4759 188.865L132.167 95.4877L132.283 95.2603L132.167 95.0329L84.6539 2.00469ZM180.107 188.865L180.552 189.736L180.997 188.865L228.51 95.8364L228.626 95.609L228.51 95.3816L180.819 2.00469L180.374 1.13284L179.929 2.00469L132.416 95.0329L132.3 95.2603L132.416 95.4877L180.107 188.865Z" stroke="url(#paint0_linear_516_1439)" stroke-opacity="0.53"/>
<defs>
<linearGradient id="paint0_linear_516_1439" x1="216" y1="16.5" x2="313.594" y2="299.237" gradientUnits="userSpaceOnUse">
<stop stop-color="#E3EDDA" stop-opacity="0"/>
<stop offset="0.416276" stop-color="#9CB785" stop-opacity="0.17"/>
<stop offset="1" stop-color="#77CF27" stop-opacity="0.63"/>
</linearGradient>
</defs>
</svg>
