<svg width="44" height="46" viewBox="0 0 44 46" fill="none" xmlns="http://www.w3.org/2000/svg">
<path d="M4.62733 19.9213C5.61181 20.5399 6.24525 21.5936 6.24525 22.7561C6.24523 23.9188 5.61179 24.9726 4.62733 25.5911C3.95742 26.0119 3.52579 26.3484 3.21871 26.7486C2.54598 27.6255 2.24908 28.7334 2.39333 29.829C2.5015 30.6507 2.98685 31.4913 3.95756 33.1728C4.92829 34.854 5.41365 35.6946 6.07117 36.1992C6.94787 36.8719 8.05592 37.1688 9.15154 37.0246C9.6516 36.9588 10.1587 36.7532 10.858 36.3836C11.8861 35.8403 13.1156 35.8186 14.1226 36.4001C15.1295 36.9815 15.7254 38.0569 15.7688 39.2188C15.7984 40.0094 15.8739 40.5515 16.067 41.0176C16.4899 42.0384 17.301 42.8496 18.3219 43.2726C19.0877 43.5896 20.0583 43.5896 21.9998 43.5896C23.9413 43.5896 24.9119 43.5896 25.6777 43.2726C26.6985 42.8496 27.5098 42.0384 27.9327 41.0176C28.1256 40.5515 28.2013 40.0094 28.2308 39.219C28.2742 38.0569 28.87 36.9815 29.8771 36.4001C30.884 35.8188 32.1133 35.8405 33.1413 36.3838C33.8408 36.7534 34.3479 36.959 34.8479 37.0249C35.9435 37.1692 37.0517 36.8721 37.9283 36.1994C38.5858 35.6951 39.0713 34.8542 40.0421 33.173C40.4742 32.4244 40.8102 31.8426 41.0594 31.3546M39.3721 25.5913C38.3877 24.9728 37.7544 23.919 37.7542 22.7565C37.7542 21.5938 38.3877 20.5399 39.3721 19.9213C40.0421 19.5005 40.4735 19.164 40.7806 18.7638C41.4533 17.8871 41.7502 16.7791 41.606 15.6834C41.4979 14.8617 41.0125 14.0211 40.0417 12.3397C39.071 10.6584 38.5856 9.81777 37.9281 9.31322C37.0515 8.64049 35.9433 8.3436 34.8477 8.48783C34.3477 8.55368 33.8406 8.75922 33.1413 9.12887C32.1131 9.67222 30.8838 9.69389 29.8769 9.11247C28.87 8.5311 28.2742 7.45568 28.2308 6.29387C28.2013 5.50322 28.1256 4.9612 27.9327 4.49512C27.5098 3.47418 26.6985 2.66304 25.6777 2.24014C24.9119 1.92297 23.9413 1.92297 21.9998 1.92297C20.0583 1.92297 19.0877 1.92297 18.3219 2.24014C17.301 2.66304 16.4899 3.47418 16.067 4.49512C15.8739 4.96116 15.7984 5.50314 15.7688 6.29368C15.7253 7.4556 15.1295 8.53112 14.1225 9.11247C13.1156 9.69385 11.8862 9.67212 10.8582 9.12881C10.1588 8.75914 9.65167 8.55358 9.15156 8.48772C8.05594 8.3435 6.9479 8.64039 6.07119 9.31312C5.41367 9.81766 4.92831 10.6583 3.95758 12.3396C3.52544 13.0882 3.18948 13.67 2.94017 14.1578M28.2499 22.7563C28.2499 26.2081 25.4517 29.0063 21.9999 29.0063C18.5482 29.0063 15.7499 26.2081 15.7499 22.7563C15.7499 19.3045 18.5482 16.5063 21.9999 16.5063C25.4517 16.5063 28.2499 19.3045 28.2499 22.7563Z" stroke="#A0B9BA" stroke-opacity="0.91" stroke-width="3.125" stroke-linecap="round"/>
</svg>
