<svg xmlns="http://www.w3.org/2000/svg" width="144" height="31" viewBox="0 0 144 31" fill="none">
  <path fill-rule="evenodd" clip-rule="evenodd" d="M20.5048 12.472H16.8581C17.8906 11.3589 18.5103 9.89353 18.5103 8.31464C18.5103 7.46683 18.2068 6.66616 17.6847 6.08581C17.1647 5.50773 16.4738 5.19665 15.768 5.19665C15.0622 5.19665 14.3712 5.50773 13.8512 6.08581C13.3292 6.66616 13.0256 7.46683 13.0256 8.31464V9.11892C12.5037 9.6937 12.5037 9.6937 12.0423 10.1553C11.5809 9.6937 11.5809 9.6937 11.0312 9.11892V8.31464C11.0312 7.46683 10.7276 6.66616 10.2056 6.08581C9.68558 5.50773 8.9946 5.19665 8.28881 5.19665C7.58302 5.19665 6.89203 5.50773 6.37203 6.08581C5.85 6.66616 5.54645 7.46683 5.54645 8.31464C5.54645 9.89353 6.16617 11.3589 7.19864 12.472H3.55205C3.552 10.913 3.55201 9.75999 3.55201 8.31464C3.55201 3.65622 7.41293 0 12.0284 0C16.6438 0 20.5048 3.65622 20.5048 8.31464V12.472ZM12.0284 2.07866C13.3681 2.07866 14.5985 2.46465 15.6191 3.12055C14.3963 3.1626 13.2444 3.72111 12.3962 4.66413C12.2646 4.81036 12.1419 4.96406 12.0284 5.12427C11.9148 4.96406 11.7921 4.81036 11.6606 4.66413C10.8123 3.72111 9.66042 3.1626 8.43771 3.12055C9.45823 2.46465 10.6886 2.07866 12.0284 2.07866Z" fill="#F5FAF1"/>
  <path d="M8.28881 7.27531C7.73806 7.27531 7.29158 7.74063 7.29158 8.31464C7.29158 8.88865 7.73806 9.35397 8.28881 9.35397H8.29815C8.8489 9.35397 9.29537 8.88865 9.29537 8.31464C9.29537 7.74063 8.8489 7.27531 8.29815 7.27531H8.28881Z" fill="#F5FAF1"/>
  <path d="M15.768 7.27531C15.2172 7.27531 14.7707 7.74063 14.7707 8.31464C14.7707 8.88865 15.2172 9.35397 15.768 9.35397H15.7773C16.3281 9.35397 16.7745 8.88865 16.7745 8.31464C16.7745 7.74063 16.3281 7.27531 15.7773 7.27531H15.768Z" fill="#F5FAF1"/>
  <path d="M16.872 4.8997H21.3246C21.557 4.8997 21.7797 4.81126 21.944 4.65379C22.1084 4.49633 22.2 4.18023 22.2 3.95754C22.2 3.73485 22.1081 3.52136 21.9438 3.36389C21.7794 3.20643 21.5567 3.11799 21.3243 3.11799H16.9443L16.872 4.8997Z" fill="#F5FAF1"/>
  <path d="M7.10401 4.8997H2.65142C2.41905 4.8997 2.19631 4.81126 2.03199 4.65379C1.86768 4.49633 1.776 4.18023 1.776 3.95754C1.776 3.73485 1.86797 3.52136 2.03229 3.36389C2.1966 3.20643 2.41934 3.11799 2.65172 3.11799H7.03176L7.10401 4.8997Z" fill="#F5FAF1"/>
  <path d="M22.4818 21.181C22.6418 20.9578 22.7273 20.6954 22.7273 20.427C22.7273 20.0671 22.5738 19.7219 22.3006 19.4674C22.0274 19.2128 21.6568 19.0698 21.2704 19.0698C20.9823 19.0698 20.7006 19.1494 20.461 19.2986C20.2214 19.4477 20.0347 19.6597 19.9244 19.9076C19.8142 20.1556 19.7853 20.4285 19.8415 20.6918C19.8977 20.955 20.0365 21.1969 20.2402 21.3867C20.444 21.5765 20.7036 21.7057 20.9862 21.7581C21.2688 21.8105 21.5617 21.7836 21.8279 21.6809C22.0941 21.5781 22.3217 21.4042 22.4818 21.181Z" fill="#F5FAF1"/>
  <path fill-rule="evenodd" clip-rule="evenodd" d="M4.44001 7.12683H3.20513C2.35508 7.12683 1.53984 7.4414 0.938761 8.00134C0.337682 8.56128 0 9.32072 0 10.1126V27.4842C0 28.2761 0.337682 29.0356 0.938761 29.5955C1.53984 30.1554 2.35508 30.47 3.20513 30.47H26.5152C27.0561 30.47 27.5749 30.2698 27.9574 29.9135C28.3399 29.5572 28.5548 29.0739 28.5548 28.57V13.3698C28.5548 12.8659 28.3399 12.3826 27.9574 12.0263C27.5749 11.6699 27.0561 11.4697 26.5152 11.4697H3.20513C2.81874 11.4697 2.44818 11.3268 2.17496 11.0722C1.90174 10.8177 1.74825 10.4725 1.74825 10.1126C1.74825 9.75265 1.90174 9.40745 2.17496 9.15293C2.44818 8.89841 2.81874 8.75543 3.20513 8.75543H4.44001V7.12683ZM26.7212 28.7619C26.7758 28.711 26.8065 28.642 26.8065 28.57V13.3698C26.8065 13.2978 26.7758 13.2287 26.7212 13.1778C26.6666 13.1269 26.5924 13.0983 26.5152 13.0983H3.20513C2.89404 13.0987 2.69888 13.0986 2.4207 13.0985C2.14253 13.0984 1.776 12.9174 1.74825 12.9174V27.4842C1.74825 27.8442 1.90174 28.1894 2.17496 28.4439C2.44818 28.6984 2.81874 28.8414 3.20513 28.8414H26.5152C26.5924 28.8414 26.6666 28.8128 26.7212 28.7619Z" fill="#F5FAF1"/>
  <path d="M21.8089 8.75543H19.536V7.12683H21.8089C22.3499 7.12683 22.8687 7.32701 23.2512 7.68334C23.6337 8.03966 23.8486 8.52294 23.8486 9.02686V11.5811H22.1003V9.02686C22.1003 8.95487 22.0696 8.88583 22.015 8.83493C21.9603 8.78402 21.8862 8.75543 21.8089 8.75543Z" fill="#F5FAF1"/>
  <path d="M137.198 22.2179V25.3181H144V27.6165H137.038C135.653 27.6165 134.534 26.5652 134.534 25.2824V16.7302C134.534 15.4474 135.653 14.3962 137.038 14.3962H144V16.6946H137.198V19.9195H143.467V22.2179H137.198Z" fill="#F5FAF1"/>
  <path d="M122.654 18.1734C122.654 16.0888 124.856 14.3962 127.574 14.3962H129.35C130.682 14.3962 132.582 14.9485 133.47 15.8394L131.161 17.6211C130.753 17.0509 130.007 16.6946 129.35 16.6946H127.574C126.33 16.6946 125.318 17.3538 125.318 18.1734C125.318 20.2045 133.648 19.385 133.648 23.8392C133.648 25.9238 131.357 27.6165 128.55 27.6165H126.774C125.389 27.6165 123.4 27.0641 122.477 26.1733L124.768 24.3916C125.212 24.9617 126.046 25.3181 126.774 25.3181H128.55C129.9 25.3181 130.984 24.6588 130.984 23.8392C130.984 21.5586 122.654 22.592 122.654 18.1734Z" fill="#F5FAF1"/>
  <path d="M118.946 14.3962H121.61V27.6165H118.946V14.3962Z" fill="#F5FAF1"/>
  <path d="M105.296 24.8904L108.244 16.3204H111.051L113.999 24.8904L115.011 14.3962H117.853L116.645 25.4071C116.467 26.9394 115.313 27.7055 114.194 27.7055C113.324 27.7055 112.471 27.2423 112.116 26.298L109.648 19.0643L107.179 26.298C106.824 27.2423 105.971 27.7055 105.101 27.7055C103.982 27.7055 102.828 26.9394 102.65 25.4071L101.442 14.3962H104.284L105.296 24.8904Z" fill="#F5FAF1"/>
  <path d="M97.2868 27.6165H94.6228V16.7302C94.6228 15.4474 95.7417 14.3962 97.127 14.3962H100.629V16.7302L97.2868 16.6946V27.6165ZM97.2868 14.3962L94.9062 16.6946H91.0708L91.8629 14.3962H97.2868Z" fill="#F5FAF1"/>
  <path d="M82.811 22.2179V25.3181H89.6131V27.6165H82.6511C81.2659 27.6165 80.147 26.5652 80.147 25.2824V16.7302C80.147 15.4474 81.2659 14.3962 82.6511 14.3962H90.4787L89.6131 16.6946H82.811V19.9195H89.0803V22.2179H82.811Z" fill="#F5FAF1"/>
  <path d="M72.9088 14.3962H74.6848C76.0701 14.3962 78.0592 14.9485 78.9827 15.8394L76.6739 17.6211C76.2299 17.0509 75.4129 16.6946 74.6848 16.6946H72.9088C71.5768 16.6946 70.5112 17.924 70.5112 19.4206V22.592C70.5112 24.0887 71.5945 25.3181 72.9443 25.3181H76.372V21.0241H79.036V25.2824C79.036 26.5652 77.9171 27.6165 76.5318 27.6165H72.9443C70.1382 27.6165 67.8472 25.3715 67.8472 22.592V19.4206C67.8472 16.6411 70.1205 14.3962 72.9088 14.3962Z" fill="#F5FAF1"/>
  <path d="M64.7387 22.592V19.4206C64.7387 17.924 63.6553 16.6946 62.3056 16.6946H58.8779V25.3181H62.3056C63.6553 25.3181 64.7387 24.0887 64.7387 22.592ZM56.2139 16.7302C56.2139 15.4474 57.3328 14.3962 58.718 14.3962H62.3056C65.1116 14.3962 67.4027 16.6411 67.4027 19.4206V22.592C67.4027 25.3715 65.1116 27.6165 62.3056 27.6165H56.2139V16.7302Z" fill="#F5FAF1"/>
  <path d="M43.2988 14.3962H45.9628V22.592C45.9628 24.0887 47.0462 25.3181 48.396 25.3181H49.8168C51.1665 25.3181 52.2499 24.0887 52.2499 22.592V14.3962H54.9139V22.592C54.9139 25.3715 52.6228 27.6165 49.8168 27.6165H48.396C45.5899 27.6165 43.2988 25.3715 43.2988 22.592V14.3962Z" fill="#F5FAF1"/>
  <path d="M40.468 20.8103C41.8177 21.523 42.4926 22.6989 42.4926 23.8927C42.4926 25.7635 40.8232 27.6165 37.4843 27.6165H31.3926V16.7302C31.3926 15.4474 32.5115 14.3962 33.8967 14.3962H37.4843C40.3436 14.3962 41.7822 16.2313 41.7822 18.0665C41.7822 19.0821 41.3382 20.0976 40.468 20.8103ZM35.1121 19.7948H37.4843C38.6209 19.7948 39.1892 19.0108 39.1892 18.2447C39.1892 17.4607 38.6209 16.6946 37.4843 16.6946H34.0566V25.3181H37.4843C39.1004 25.3181 39.8996 24.5163 39.8996 23.7145C39.8996 22.9127 39.1004 22.0932 37.4843 22.0932H35.1121V19.7948Z" fill="#F5FAF1"/>
</svg>