<svg width="256" height="54" viewBox="0 0 256 54" fill="none" xmlns="http://www.w3.org/2000/svg">
<path fill-rule="evenodd" clip-rule="evenodd" d="M36.3447 22.1032H29.881C31.7111 20.1307 32.8095 17.5337 32.8095 14.7355C32.8095 13.233 32.2715 11.814 31.3462 10.7855C30.4245 9.76099 29.1997 9.20969 27.9487 9.20969C26.6977 9.20969 25.4729 9.76099 24.5512 10.7855C23.6259 11.814 23.0879 13.233 23.0879 14.7355V16.1609C22.1628 17.1795 22.1628 17.1795 21.345 17.9976C20.5272 17.1795 20.5272 17.1795 19.5527 16.1609V14.7355C19.5527 13.233 19.0147 11.814 18.0894 10.7855C17.1677 9.76099 15.9429 9.20969 14.6919 9.20969C13.4409 9.20969 12.2161 9.76099 11.2944 10.7855C10.3691 11.814 9.83107 13.233 9.83107 14.7355C9.83107 17.5337 10.9295 20.1307 12.7596 22.1032H6.29601C6.29592 19.3403 6.29593 17.297 6.29593 14.7355C6.29593 6.47968 13.1394 0 21.3203 0C29.5012 0 36.3447 6.47968 36.3447 14.7355V22.1032ZM21.3203 3.68387C23.695 3.68387 25.8759 4.36793 27.6848 5.53035C25.5175 5.60488 23.4757 6.59468 21.9722 8.26593C21.7391 8.52508 21.5216 8.79748 21.3203 9.08142C21.119 8.79748 20.9015 8.52508 20.6684 8.26593C19.1648 6.59468 17.1231 5.60488 14.9558 5.53035C16.7647 4.36793 18.9456 3.68387 21.3203 3.68387Z" fill="#174D53"/>
<path d="M14.6919 12.8936C13.7157 12.8936 12.9243 13.7182 12.9243 14.7355C12.9243 15.7528 13.7157 16.5774 14.6919 16.5774H14.7085C15.6847 16.5774 16.476 15.7528 16.476 14.7355C16.476 13.7182 15.6847 12.8936 14.7085 12.8936H14.6919Z" fill="#174D53"/>
<path d="M27.9487 12.8936C26.9725 12.8936 26.1811 13.7182 26.1811 14.7355C26.1811 15.7528 26.9725 16.5774 27.9487 16.5774H27.9653C28.9415 16.5774 29.7328 15.7528 29.7328 14.7355C29.7328 13.7182 28.9415 12.8936 27.9653 12.8936H27.9487Z" fill="#174D53"/>
<path d="M29.9057 8.68342H37.7979C38.2097 8.68342 38.6046 8.52669 38.8958 8.24762C39.187 7.96855 39.3495 7.40836 39.3495 7.01369C39.3495 6.61903 39.1865 6.24068 38.8953 5.96161C38.604 5.68254 38.2092 5.52581 37.7973 5.52581H30.0337L29.9057 8.68342Z" fill="#174D53"/>
<path d="M12.5919 8.68342H4.69964C4.28776 8.68342 3.89295 8.52669 3.6017 8.24762C3.31046 7.96855 3.14796 7.40836 3.14796 7.01369C3.14796 6.61903 3.31098 6.24068 3.60222 5.96161C3.89347 5.68254 4.28828 5.52581 4.70017 5.52581H12.4638L12.5919 8.68342Z" fill="#174D53"/>
<path d="M39.8489 37.5377C40.1326 37.1422 40.2841 36.6772 40.2841 36.2015C40.2841 35.5636 40.012 34.9518 39.5278 34.5007C39.0435 34.0497 38.3867 33.7963 37.7018 33.7963C37.191 33.7963 36.6918 33.9373 36.2671 34.2016C35.8425 34.4659 35.5115 34.8415 35.316 35.281C35.1206 35.7205 35.0695 36.2041 35.1691 36.6707C35.2687 37.1373 35.5147 37.5658 35.8758 37.9022C36.2369 38.2386 36.6971 38.4676 37.198 38.5605C37.6989 38.6533 38.2181 38.6056 38.69 38.4236C39.1618 38.2415 39.5651 37.9333 39.8489 37.5377Z" fill="#174D53"/>
<path fill-rule="evenodd" clip-rule="evenodd" d="M7.86991 12.6304H5.68109C4.17437 12.6304 2.72936 13.1879 1.66395 14.1803C0.598541 15.1726 0 16.5185 0 17.9219V48.7085C0 50.1119 0.598541 51.4578 1.66395 52.4502C2.72936 53.4425 4.17437 54 5.68109 54H46.9981C47.9569 54 48.8765 53.6452 49.5545 53.0137C50.2325 52.3823 50.6133 51.5258 50.6133 50.6327V23.6944C50.6133 22.8013 50.2325 21.9448 49.5545 21.3133C48.8765 20.6819 47.9569 20.3271 46.9981 20.3271H5.68109C4.99622 20.3271 4.3394 20.0737 3.85512 19.6226C3.37084 19.1716 3.09878 18.5598 3.09878 17.9219C3.09878 17.284 3.37084 16.6722 3.85512 16.2211C4.3394 15.7701 4.99622 15.5167 5.68109 15.5167H7.86991V12.6304ZM47.3633 50.9729C47.4602 50.8826 47.5146 50.7603 47.5146 50.6327V23.6944C47.5146 23.5668 47.4602 23.4444 47.3633 23.3542C47.2664 23.264 47.1351 23.2133 46.9981 23.2133H5.68109C5.12968 23.214 4.78376 23.2138 4.2907 23.2136C3.79763 23.2134 3.14796 22.8926 3.09878 22.8926V48.7085C3.09878 49.3464 3.37084 49.9582 3.85512 50.4093C4.3394 50.8603 4.99622 51.1138 5.68109 51.1138H46.9981C47.1351 51.1138 47.2664 51.0631 47.3633 50.9729Z" fill="#174D53"/>
<path d="M38.6563 15.5167H34.6276V12.6304H38.6563C39.6151 12.6304 40.5347 12.9852 41.2127 13.6167C41.8907 14.2482 42.2715 15.1047 42.2715 15.9977V20.5244H39.1728V15.9977C39.1728 15.8701 39.1184 15.7478 39.0215 15.6576C38.9247 15.5674 38.7933 15.5167 38.6563 15.5167Z" fill="#174D53"/>
<path d="M243.184 39.3754V44.8696H255.24V48.943H242.9C240.445 48.943 238.462 47.08 238.462 44.8065V29.65C238.462 27.3765 240.445 25.5135 242.9 25.5135H255.24V29.5868H243.184V35.3021H254.296V39.3754H243.184Z" fill="#174D53"/>
<path d="M217.404 32.2076C217.404 28.5133 221.308 25.5135 226.124 25.5135H229.272C231.633 25.5135 235.002 26.4924 236.575 28.0712L232.483 31.2288C231.759 30.2184 230.437 29.5868 229.272 29.5868H226.124C223.921 29.5868 222.126 30.7551 222.126 32.2076C222.126 35.8073 236.89 34.3548 236.89 42.2488C236.89 45.9432 232.829 48.943 227.856 48.943H224.708C222.252 48.943 218.727 47.9641 217.09 46.3853L221.15 43.2277C221.937 44.2381 223.417 44.8696 224.708 44.8696H227.856C230.248 44.8696 232.168 43.7013 232.168 42.2488C232.168 38.2071 217.404 40.0385 217.404 32.2076Z" fill="#174D53"/>
<path d="M210.832 25.5135H215.554V48.943H210.832V25.5135Z" fill="#174D53"/>
<path d="M186.638 44.1118L191.863 28.9237H196.837L202.063 44.1118L203.857 25.5135H208.894L206.753 45.0275C206.438 47.7431 204.392 49.1008 202.409 49.1008C200.866 49.1008 199.355 48.2799 198.726 46.6063L194.35 33.7864L189.974 46.6063C189.345 48.2799 187.834 49.1008 186.291 49.1008C184.308 49.1008 182.262 47.7431 181.947 45.0275L179.807 25.5135H184.843L186.638 44.1118Z" fill="#174D53"/>
<path d="M172.442 48.9429H167.72V29.65C167.72 27.3765 169.703 25.5135 172.159 25.5135H178.367V29.65L172.442 29.5868V48.9429ZM172.442 25.5135L168.223 29.5868H161.424L162.828 25.5135H172.442Z" fill="#174D53"/>
<path d="M146.783 39.3754V44.8696H158.84V48.9429H146.5C144.044 48.9429 142.061 47.0799 142.061 44.8065V29.65C142.061 27.3765 144.044 25.5135 146.5 25.5135H160.374L158.84 29.5868H146.783V35.3021H157.895V39.3754H146.783Z" fill="#174D53"/>
<path d="M129.232 25.5135H132.38C134.835 25.5135 138.361 26.4924 139.998 28.0712L135.905 31.2288C135.118 30.2184 133.67 29.5868 132.38 29.5868H129.232C126.871 29.5868 124.982 31.7656 124.982 34.418V40.0385C124.982 42.6909 126.902 44.8696 129.295 44.8696H135.37V37.2598H140.092V44.8065C140.092 47.08 138.109 48.943 135.653 48.943H129.295C124.321 48.943 120.26 44.9644 120.26 40.0385V34.418C120.26 29.4921 124.289 25.5135 129.232 25.5135Z" fill="#174D53"/>
<path d="M114.75 40.0385V34.4179C114.75 31.7656 112.829 29.5868 110.437 29.5868H104.361V44.8696H110.437C112.829 44.8696 114.75 42.6909 114.75 40.0385ZM99.6394 29.65C99.6394 27.3765 101.623 25.5135 104.078 25.5135H110.437C115.411 25.5135 119.472 29.4921 119.472 34.4179V40.0385C119.472 44.9643 115.411 48.9429 110.437 48.9429H99.6394V29.65Z" fill="#174D53"/>
<path d="M76.7471 25.5135H81.4691V40.0385C81.4691 42.6909 83.3893 44.8696 85.7818 44.8696H88.3002C90.6926 44.8696 92.6129 42.6909 92.6129 40.0385V25.5135H97.3348V40.0385C97.3348 44.9644 93.2739 48.943 88.3002 48.943H85.7818C80.808 48.943 76.7471 44.9644 76.7471 40.0385V25.5135Z" fill="#174D53"/>
<path d="M71.7297 36.8809C74.1221 38.1439 75.3183 40.228 75.3183 42.3436C75.3183 45.659 72.3592 48.943 66.4411 48.943H55.6436V29.65C55.6436 27.3765 57.6268 25.5135 60.0822 25.5135H66.4411C71.5093 25.5135 74.0591 28.7659 74.0591 32.0182C74.0591 33.818 73.2722 35.6179 71.7297 36.8809ZM62.2364 35.0811H66.4411C68.4558 35.0811 69.4631 33.6917 69.4631 32.334C69.4631 30.9446 68.4558 29.5868 66.4411 29.5868H60.3655V44.8696H66.4411C69.3057 44.8696 70.7223 43.4487 70.7223 42.0278C70.7223 40.6069 69.3057 39.1544 66.4411 39.1544H62.2364V35.0811Z" fill="#174D53"/>
</svg>
